<?xml version="1.0" encoding="utf-8"?>
<!-- Generator: Adobe Illustrator 16.0.0, SVG Export Plug-In . SVG Version: 6.00 Build 0)  -->
<!DOCTYPE svg PUBLIC "-//W3C//DTD SVG 1.1//EN" "http://www.w3.org/Graphics/SVG/1.1/DTD/svg11.dtd">
<svg version="1.1" id="Layer_1" xmlns="http://www.w3.org/2000/svg" xmlns:xlink="http://www.w3.org/1999/xlink" x="0px" y="0px"
	 width="290px" height="191.5px" viewBox="0 0 290 191.5" enable-background="new 0 0 290 191.5" xml:space="preserve">
<path fill-rule="evenodd" clip-rule="evenodd" fill="#9E7644" d="M461.25,139c-4.291-0.244-8.168-2.132-12.197-3.31
	c-5.213-1.523-10.151-1.379-15.364-0.202c-8.98,2.029-18.154,2.854-27.33,3.512c-7.318,0.525-14.64,1.012-21.962,1.476
	c-6.014,0.381-11.979-0.458-17.792-1.688c-2.665-0.563-7.334-0.802-5.547-6.138c0.359-1.074-0.723-1.099-1.441-1.117
	c-4.865-0.124-9.661,1.142-14.545,0.751c-0.327-0.026-0.926,0.154-0.981,0.354c-1.729,6.181-7.219,3.782-11.133,4.809
	c-2.984,0.781-6.165,0.812-9.156,1.575c-2.51,0.642-2.931,2.343-0.755,4.003c2.47,1.885,5.229,3.399,7.641,5.35
	c3.383,2.735,3.087,4.687-0.675,6.766c-5.823,3.221-12.32,3.941-18.711,4.791c-11.6,1.542-23.265,2.194-34.984,2.51
	c-7.486,0.202-14.859-0.148-22.258-0.914c-5.701-0.588-11.172,0.36-16.476,2.383c-15.942,6.08-32.436,5.707-49.063,4.493
	c-4.095-0.299-7.819-1.495-11.55-2.856c-2.898-1.057-5.742-2.737-5.815-6.156c-0.069-3.271,2.498-5.217,5.091-6.902
	c0.96-0.625,2.969-0.358,2.713-2.016c-0.246-1.586-2.105-1.021-3.209-1.205c-7.121-1.184-14.109-0.225-21.013,1.627
	c-1.074,0.288-2.144,0.591-3.215,0.887c-0.093-0.127-0.186-0.254-0.281-0.38c-0.231-0.907-0.083-1.884-0.514-2.755
	c-0.404-1.144-1.208-1.885-2.317-2.325c-2.973-1.464-6.015-0.917-9.062-0.329c-0.609,0.062-1.217,0.078-1.829,0.088
	c-1.937-0.28-4.563,0.928-5.101-2.361c2.184-2.895,5.513-2.607,8.527-2.832c4.353-0.324,8.736-0.133,13.105-0.086
	c2.806,0.029,5.385-0.483,7.912-1.818c5.688-3.007,11.621-2.271,17.5-0.611c1.74,0.49,3.123,1.53,1.229,3.434
	c-1.434,1.44-0.57,2.109,0.743,2.721c0.793,0.368,1.619,0.661,2.41,1.033c3.463,1.63,3.78,2.473,2.332,6.136
	c-1.948,4.932-1.137,6.615,4.12,7.455c10.672,1.706,21.388,1.681,32.071,0.091c3.131-0.467,6.047-1.313,6.562-5.418
	c0.314-2.504,2.527-3.975,4.709-5.003c6.074-2.862,12.528-4.145,19.225-4.243c3.002-0.043,4.805,1.154,4.463,4.479
	c-0.248,2.415,1.283,3.376,3.288,3.769c4.044,0.792,8.122,1.469,12.251,1.43c6.253-0.059,12.48,0.096,18.667,1.085
	c1.111,0.178,2.259,0.372,3.34-0.007c1.334-0.469,2.658-1.276,2.81-2.733c0.167-1.599-1.441-1.871-2.577-2.208
	c-4.072-1.209-8.271-1.902-12.396-2.902c-9.198-2.232-11.757-5.14-11.566-14.584c0.091-4.455-1.326-7.079-5.591-8.309
	c-1.543-0.444-3.082-1.039-4.524-1.776c-0.781-0.398-2.092-0.687-1.229-2.124c3.565-1.76,7.313-0.914,10.998-0.733
	c13.168,0.647,26.313,1.621,39.431,2.933c2.31,0.23,3.967-1.343,6.063-1.511c6.379,3.566,13.301,4.535,20.503,4.53
	c7.227-0.006,14.471-0.466,21.679,0.6c3.136,0.464,6.146,1.141,8.645,3.219c3.642,3.03,7.979,4.02,12.543,4.203
	c19.926,0.797,39.58-2,59.24-4.629c2.32-0.31,4.81-0.833,5.202-3.906c1.372-2.283,0.061-5.361,2.183-7.438
	c3.556-0.745,7.183-0.831,10.777-1.188c1.512-0.149,3.004,0.093,4.188,1.225C461.25,125,461.25,132,461.25,139z"/>
<path fill-rule="evenodd" clip-rule="evenodd" fill="#9E7644" d="M151.522,151.781c-4.028,3.46-4.167,5.933-0.526,9.594
	c1.058,1.063,2.102,2.144,3.22,3.141c5.729,5.113,5.245,9.72-1.486,13.594c-6.488,3.732-13.728,5.127-20.926,6.627
	c-9.034,1.882-18.223,2.305-27.384,3.141c-12.234,1.117-24.482,0.971-36.663,0.444c-18.978-0.819-37.995-2.052-56.562-6.617
	c-4.099-1.008-8.258-2.076-11.777-4.623c-3.379-2.446-3.183-5.554,0.457-7.633c4.854-2.772,10.229-3.935,15.661-4.702
	c5.532-0.781,11.114-1.201,16.674-1.779c1.44,1.046,1.668,2.514,1.449,4.14c-2.264,5.165-1.79,6.175,3.823,7.843
	c7.483,2.225,15.248,2.842,22.944,3.089c11.94,0.385,23.859,1.757,35.871,0.384c7.037-0.805,14.217,0.016,21.322-0.236
	c6.094-0.216,12.249-0.283,18.203-1.817c6.279-1.617,7.707-5.624,4.212-11.252c-1.258-3.499-2.416-7.029-5.422-9.579
	c-0.894-0.76-1.212-1.916,0.023-2.864c5.616-0.237,11.161-1.709,16.832-0.966L151.522,151.781z"/>
<path fill-rule="evenodd" clip-rule="evenodd" fill="#7B695B" d="M134.254,153.264c0.286,1.832,2.142,2.251,3.144,3.454
	c1.897,2.277,3.112,4.722,2.863,7.753c1.111,1.533,0.392,2.834-0.559,4.066c-1.651,2.14-3.784,3.532-6.409,4.273
	c-15.564,4.395-31.436,5.018-47.436,3.81c-7.475-0.565-14.952-0.026-22.417-0.351c-8.862-0.384-17.654-1.315-25.893-4.998
	c-2.063-0.921-4.165-1.838-4.526-4.49c-0.27-1.271-0.54-2.543-0.81-3.814c0.612-1.216,1.069-2.547,1.869-3.622
	c1.806-2.431,1.684-4.637-0.352-6.806c-0.291-0.416-0.597-0.945-0.325-1.367c1.989-3.081,4.56-5.695,6.964-8.438
	c0.337-0.385,0.913-0.155,1.262,0.284c0.228,0.45,0.364,0.924,0.374,1.433c0.112,5.981,0.753,6.856,6.384,8.776
	c3.446,1.176,7.1,1.379,10.6,2.281c1.438,0.37,3.969,0.086,3.715,2.053c-0.216,1.678-2.673,1.333-4.241,1.359
	c-3.614,0.063-7.239,0.208-10.825-0.475c-0.858-0.162-1.74-0.263-2.608-0.202c-1.803,0.125-4.275-0.755-5.133,1.167
	c-0.847,1.897,1.639,2.732,2.746,3.971c0.332,0.371,0.887,0.665,0.979,1.11c1.295,6.228,6.521,5.372,10.719,5.576
	c7.842,0.38,15.712-0.093,23.573,0.088c0.612-0.003,1.207,0.094,1.794,0.253c5.638,1.133,11.37,0.324,17.071,0.927
	c10.587,1.118,21.093-0.604,31.52-2.438c2.022-0.356,4.18-0.819,5.512-3.286c-4.013-0.371-7.529,2.238-11.331,1.16
	c-0.562-0.238-1.005-0.594-1.17-1.212c0.69-2.073,2.785-1.757,4.259-2.504c1.299-0.658,3.024-1.132,2.406-3.139
	c-0.547-1.778-2.159-2.066-3.664-1.688c-2.305,0.581-4.681,0.474-6.986,0.987c-0.943,0.211-2.219,0.192-2.491-0.988
	c-0.279-1.209,0.939-1.67,1.837-1.967c2.824-0.934,5.692-1.722,8.497-2.729c4.413-1.585,4.558-1.717,4.082-6.42
	c-0.051-0.497-0.074-0.986,0.02-1.482c0.117-0.387,0.359-0.661,0.725-0.83C133.739,146.707,134.816,148.848,134.254,153.264z"/>
<path fill-rule="evenodd" clip-rule="evenodd" fill="#9E7644" d="M41.308,142.77c-1.866,3.769-5.711,6.002-7.58,9.77
	c-3.616-1.884-6.248-4.926-8.905-7.861c-2.759-3.049-1.979-5.401,2.141-6.364c4.225-0.985,8.522-1.925,12.832-2.206
	c5.457-0.355,10.957-0.064,16.397-0.884c0.469,0.468,0.521,1.015,0.308,1.612c-0.421,0.646-1.028,1.154-1.746,1.283
	C50.024,138.964,45.765,141.151,41.308,142.77z"/>
<path fill-rule="evenodd" clip-rule="evenodd" fill="#7C6A5B" d="M56.251,136.723c-0.019-0.5-0.038-1-0.057-1.499
	c-0.139-7.53,0.778-14.684,4.957-21.357c2.38-3.8,1.867-8.613,1.918-13.071c0.417-0.236,0.805-0.196,1.166,0.119
	c1.858,2.873,2.097,6.034,1.5,9.282c-0.5,2.72-1.657,5.226-2.954,7.649c-1.302,2.436-2.294,5.001-2.94,7.658
	c-1.448,5.951-0.152,7.141,5.843,6.099c4.694-0.815,9.424-0.969,13.975,0.953c1.23,0.519,3.002,0.842,2.692,2.497
	c-0.267,1.422-1.985,1.237-3.202,1.25c-4.116,0.046-8.234,0.08-12.351,0.049c-1.496-0.011-3-0.102-4.429,0.494
	C60.333,136.717,58.257,138.322,56.251,136.723z"/>
<path fill-rule="evenodd" clip-rule="evenodd" fill="#B19060" d="M63.726,100.796l-0.329-0.004c0,0-0.329,0.002-0.328,0.003
	c-1.798-1.221,0.653-3.199-0.797-4.481c0.486-0.024,0.972-0.048,1.458-0.073C65.098,97.76,65.099,99.278,63.726,100.796z"/>
<path fill-rule="evenodd" clip-rule="evenodd" fill="#836239" d="M259.516,121.002c3.097,1.24,6.14,2.646,9.307,3.669
	c2.545,0.821,3.681,2.191,3.475,4.903c-0.168,2.232-0.208,4.518,0.072,6.731c0.81,6.396,3.349,8.632,10.903,10.16
	c4.139,0.837,8.284,1.684,12.359,2.778c1.75,0.47,4.829,0.667,4.021,3.302c-0.71,2.312-2.697,4.603-5.834,4.415
	c-1.727-0.104-3.443-0.437-5.154-0.722c-9.463-1.582-19.172,0.177-28.591-2.184c-3.09-0.774-5.235-1.821-3.878-5.567
	c0.72-1.987-0.206-2.732-2.173-2.746c-7.077-0.049-13.901,1.229-20.248,4.348c-2.199,1.081-4.765,2.341-3.855,5.91
	c0.429,1.681-1.178,2.499-2.618,3.165c-3.476,1.606-7.285,1.963-10.925,2.127c-9.313,0.42-18.69,0.868-27.899-1.272
	c-5.172-1.204-6.379-3.871-3.557-8.354c1.799-2.858,1.479-4.412-1.881-5.159c-0.6-0.133-1.144-0.496-1.733-0.692
	c-1.553-0.515-3.525-0.953-3.825-2.633c-0.4-2.245,2.618-1.282,3.574-3.184c-6.458-1.813-12.774-3.319-18.963,0.255
	c-2.057,1.188-4,1.74-6.314,1.784c-7.695,0.146-15.475-0.883-23.031,1.463c-0.727,1.034-1.9,1.14-2.981,1.439l-0.04,0.106
	c-2.272,0.225-3.455-1.522-4.943-2.725c-1.64-2.438,1.375-3.963,1.188-6.125c0.488-1.364,0.967-2.736,2.695-2.98
	c4.995-0.063,9.991-0.155,14.901,1.023c6.934,1.895,13.888,1.233,20.791-0.031c6.443-1.18,12.904-1.122,19.396-0.916
	c3.727,0.118,7.488,0.482,11.147-0.594c5.327-1.568,10.654,0.402,15.974-0.076c1.471-0.215,2.947-0.213,4.424-0.071
	c5.159,6.849,12.237,6.449,19.619,5.358c2.936-0.434,5.969,0.039,8.943-0.505c8.234-1.507,12.625-6.012,13.853-14.344
	c0.073-0.496,0.162-0.982,0.365-1.444c0.195-0.367,0.484-0.634,0.863-0.801C259.134,120.876,259.324,120.939,259.516,121.002z"/>
<path fill-rule="evenodd" clip-rule="evenodd" fill="#B9925A" d="M316.481,121.73c-3.192,4.369-7.7,2.279-11.617,2.076
	c-7.175-0.371-14.305-1.531-21.478-1.98c-7.943-0.497-15.913-0.567-23.871-0.824l-0.021-0.1c-1.794-0.778-1.814-2.468-2.108-4.039
	c-1.371-7.328-1.334-14.737-1.306-22.15c-0.031-1.26,0.222-2.418,1.166-3.335c4.888-1.539,9.944-0.965,14.836-0.534
	c5.354,0.471,10.688,0.492,16.025,0.519c19.871,0.101,39.743,0.013,59.614,0.044c1.744,0.003,3.501-0.142,5.223,0.237
	c2.172,0.956,1.258,2.347,0.406,3.598c-0.934,1.373-2.332,2.197-3.883,2.759c-1.93,0.699-3.383,1.896-4.501,3.679
	c-1.747,2.787-4.413,4.648-7.678,4.559c-4.323-0.12-7.937,1.59-11.61,3.354c-3.316,1.107-5.032,3.852-6.726,6.613
	c-1.044,1.386-0.927,3.092-1.277,4.67C317.424,121.364,317.039,121.669,316.481,121.73z"/>
<path fill-rule="evenodd" clip-rule="evenodd" fill="#7F6C5C" d="M149.256,145.726c1.88,0.161,2.301,1.413,2.256,3.015
	c-1.782,3.817-5.636,2.888-8.69,3.696c-1.28,0.339-2.72,0.021-4.083,0.069c-2.007,0.072-3.873-0.181-4.26-2.574
	c-0.33-2.038,0.393-3.668,2.532-4.386c0.354-0.119,0.662-0.34,0.979-0.535c0.495-0.005,0.989-0.011,1.483-0.016
	c-0.09,2.147,0.728,2.757,3.001,2.537C144.893,147.299,146.549,144.527,149.256,145.726z"/>
<path fill-rule="evenodd" clip-rule="evenodd" fill="#83633B" d="M137.99,145.011c-0.675,0.717-1.475,1.353-2.004,2.164
	c-1.597,2.446-0.603,4.414,2.301,4.55c4.671,0.221,9.213-0.238,13.226-2.984c1.248,1.008,0.434,1.986-0.043,2.968
	c-5.654,1.452-11.408,1.803-17.215,1.556c-1.015-3.035-1.602-6.3-4.489-8.324c0.605-1.285,1.727-1.5,2.981-1.44
	C133.848,146.244,136.254,144.466,137.99,145.011z"/>
<path fill-rule="evenodd" clip-rule="evenodd" fill="#A99480" d="M149.256,145.726c-2.787,0.261-4.579,3.057-7.498,2.952
	c-1.299-0.047-2.955,0.619-3.764-0.68c-0.848-1.36,1.282-1.825,1.479-3.003C142.84,143.827,146.126,143.732,149.256,145.726z"/>
<path fill-rule="evenodd" clip-rule="evenodd" fill="#8B7257" d="M163.542,145.75c1.389,0.734,1.376,1.863,0.232,2.545
	c-1.506,0.898-3.447,0.91-4.874,0.029c-0.961-0.594,0.173-1.395,0.891-1.849C161.023,146.145,162.489,147.015,163.542,145.75z"/>
<path fill-rule="evenodd" clip-rule="evenodd" fill="#AB937B" d="M163.542,145.75c-0.807,2.534-2.356,1.233-3.751,0.727
	C160.862,145.313,162.263,145.85,163.542,145.75z"/>
<path fill-rule="evenodd" clip-rule="evenodd" fill="#9D8A79" d="M65.923,86.467c1.063-3.676,4.007-6.542,4.5-10.462
	c0.242-0.31,0.483-0.619,0.725-0.929c1.226,0.833,1.273,2.16,1.138,3.367c-0.258,2.294,0.275,4.423,0.938,6.553
	c0.839,0.841-1.736,0.507-0.498,1.493c1.426,1.307,4.196,1.286,4.029,4.128c-1.662,1.565-3.307,0.323-4.85-0.168
	c-2.095-0.667-2.951-0.005-3.349,2.066c-0.896,4.669-1.374,9.387-0.604,14.061c0.678,4.124-0.473,7.605-2.536,10.979
	c-1.768,2.892-3.224,5.933-3.896,9.262c-0.549,2.724,0.491,4.001,3.177,3.484c4.866-0.936,9.666-0.806,14.492,0.021
	c3.939,0.675,7.426,0.002,10.207-3.129c0.659-0.742,1.515-1.299,2.521-1.546c0.583-0.101,1.137-0.021,1.653,0.278
	c-0.854,4.512-3.352,7.979-6.874,10.801c-0.484,0.343-1.008,0.602-1.572,0.786c-1.377,0.388-2.761,0.335-4.148,0.073
	c-3.287-0.978-6.479-0.6-9.605,0.686c-1.316,0.326-2.643,0.35-3.974,0.122c-1.19-0.35-2.391-0.418-3.606-0.102
	c-0.524,0.046-1.036-0.012-1.53-0.19c-1.5-0.664-0.413-1.402-0.053-2.121c3.328-1.54,6.841-0.486,10.262-0.691
	c3.051-0.184,6.122-0.039,10.255-0.039c-5.917-3.427-11.278-3.685-16.649-2.582c-7.753,1.591-8.509,0.953-7.15-7.869
	c0.551-3.578,2.446-6.776,4.069-9.982c2.338-4.617,2.252-9.256,0.731-14.021c0.001-1.518,0.003-3.035,0.004-4.555
	C63.675,92.807,64.823,89.642,65.923,86.467z"/>
<path fill-rule="evenodd" clip-rule="evenodd" fill="#836239" d="M33.021,166.781c4.576,4.286,10.399,5.586,16.27,6.646
	c5.624,1.015,11.283,1.834,17.038,1.568c12.093-0.559,24.138,0.947,36.231,0.811c10.764-0.122,21.278-1.685,31.584-4.607
	c3.184-0.902,5.588-3.113,6.117-6.729c4.626,3.283,4.227,9.506-0.74,12.031c-2.606,1.325-5.466,1.811-8.265,2.134
	c-4.677,0.539-9.419,0.931-14.118,0.802c-13.208-0.362-26.39,1.418-39.56,0.693c-13.097-0.721-26.333-0.354-39.209-3.611
	c-0.843-0.214-1.687-0.434-2.51-0.709C29.612,173.716,28.982,171.7,33.021,166.781z"/>
<path fill-rule="evenodd" clip-rule="evenodd" fill="#9D8A79" d="M62.207,135.98c2.726,0.39-1.648,1.096,0.068,1.529
	c-0.116,1.815-1.58,1.675-2.749,1.797c-2.859,0.297-5.555,1.33-8.399,1.735c-1.424,0.203-3.27,1.095-3.194,2.661
	c0.08,1.673,2.097,1.418,3.365,1.518c8.204,0.646,16.369,1.827,24.629,1.721c1.931-0.024,4.813-0.281,4.813,2.193
	c-0.001,2.359-2.885,2.271-4.823,2.309c-6.676,0.129-13.354,0.118-20.029-0.028c22.413,1.517,44.814,2.238,67.902-0.453
	c-1.729-2.114-3.294-1.772-4.712-1.888c-0.619,0.023-1.215-0.086-1.799-0.279c-0.767-0.273-1.433-0.689-1.893-1.381
	c0.334-2.466,2.491-2.321,4.146-2.896c1.336,0.156,2.635,0.26,2.509-1.73c0.78-1.39,1.832-1.7,3.186-0.808
	c1.788,0.599,3.042,1.981,4.499,3.065c0.309,1.072,0.779,2.127,0.896,3.22c0.308,2.878,0.156,5.218-3.7,5.948
	c-3.933,0.746-7.691,2.407-11.386,4.272c2.87-0.463,5.736-0.947,8.609-1.383c2.526-0.384,4.88-0.234,5.45,2.913
	c0.522,2.88-1.697,3.527-3.759,4.154c-1.421,0.432-2.879,0.738-4.322,1.101c-0.717,0.804-1.662,1.051-2.533,1.102
	c0.981-0.253,2.157-0.118,3.295-0.35c3.646-0.058,7.094-1.04,10.533-2.146c0.831-0.268,1.966-1.294,2.667-0.108
	c0.658,1.113,0.318,2.382-0.571,3.449c-1.831,2.197-4.519,2.739-7.012,3.116c-10.179,1.539-20.421,3.443-30.725,2.262
	c-5.89-0.676-11.879,0.315-17.661-1.354c0.184-0.827,0.815-1.196,2.058-1.698c-2.049-0.207-3.604-0.195-5.209-0.223
	c0.527,0.689,1.957,0.55,1.679,1.887c-8.234,0.014-16.468,0.059-24.702,0.025c-3.274-0.014-6.363-1.096-9.415-2.124
	c-0.74-0.249-3.926-0.614-0.697-2.442c1.169-0.661,0.064-1.272-0.368-1.658c-1.111-0.989-2.391-1.793-3.483-2.8
	c-0.964-0.889-2.356-1.747-1.51-3.417c0.687-1.356,1.91-1.892,3.419-1.813c5.089,0.266,10.177,0.546,15.268,0.768
	c1.854,0.081,3.716,0.014,5.595-0.376c-4.557-0.937-9.207-1.561-13.651-2.875c-8.021-2.373-8.683-3.72-7.183-11.726
	c2.716-3.402,6.812-3.861,10.604-4.95c1.434-0.411,2.893-0.733,4.34-1.097C58.236,136.476,60.222,136.228,62.207,135.98z"/>
<path fill-rule="evenodd" clip-rule="evenodd" fill="#C9B8A9" d="M78.034,171.207c-1.28-1.267-3.575-0.053-4.841-2.255
	c3.847-1.456,7.448-0.686,11.387,0.425c-1.435,1.912-3.729,0.653-5.075,1.864C79.015,171.229,78.524,171.218,78.034,171.207z"/>
<path fill-rule="evenodd" clip-rule="evenodd" fill="#827060" d="M122.274,166.022c-1.925,1.313-4.184,0.513-6.239,1.138
	c1.525-1.677,3.714-1.11,5.478-1.89C121.767,165.521,122.021,165.772,122.274,166.022z"/>
<path fill-rule="evenodd" clip-rule="evenodd" fill="#AE9984" d="M246.725,62.519c0.525,2.512,2.424,3.847,4.339,5.237
	c1.747,1.268,4.004,2.038,4.727,4.417c1.417,3.529,1.207,7.001-0.083,10.551c-1.403,3.862-2.623,7.793-3.729,11.759
	c-1.129,4.044-2.951,4.936-6.989,3.676c-1.188-0.37-2.355-0.816-3.492-1.332c-1.042-0.474-2.339-1.091-2.227-2.262
	c0.165-1.729,1.906-1.107,3.016-1.383c0.836-0.287,1.665-0.09,2.633,0.14c-1.615-0.666-3.082,0.048-4.56-0.029
	c-1.865,0.72-3.772,1.29-5.677,1.878c-2.252,0.697-4.457,1.063-6.206-1.003c-1.81-2.137-1.865-4.526-0.778-7.024
	c0.354-0.814,0.863-1.515,1.406-2.194c0.199-0.305,0.444-0.581,0.714-0.827c1.549-0.936,2.815-2.268,4.333-3.243
	c1.216-0.78,1.586-1.71,1.023-3.026c0.117-1.815,2.199-2.702,2.219-5.061c-3.377,1.208-6.424,2.805-9.737,3.582
	c-0.589,0.138-1.203,0.502-1.022,1.288c0.123,0.541,0.644,0.727,1.141,0.823c1.356,0.266,2.725,0.236,4.081,0.02
	c1.111-0.178,2.226-0.486,3.081,0.604c-1.365,3.019-3.957,4.031-6.959,3.773c-3.315-0.285-5.833-2.165-7.302-5.141
	c-1.114-2.257,0.608-3.175,2.338-3.768c4.299-1.473,8.57-3.002,11.8-4.469c-3.914,1.93-8.841,2.791-14.261,1.843
	c-5.522-0.964-9.287-3.942-11.968-8.57c-1.122-1.936-2.202-3.895-3.405-5.78c-0.154-0.328-0.253-0.676-0.31-1.033
	c-0.361-0.311,0.633-1.24-0.459-1.129c-0.384,0.04-0.698,0.659-1.111,0.925c-1.558,1-3.328,1.445-4.841,0.311
	c-1.572-1.179-0.224-2.691,0.148-4.029c0.196-0.704,0.499-1.392,1.077-1.904c2.055-1.081,4.375-1.556,6.293-3.003
	c1.072-0.809,2.814-1.375,3.716-0.084c2.726,3.899,6.23,2.267,9.625,1.716c1.811-0.013,3.113-1.45,4.825-1.741
	c1.657-0.234,3.517,1.046,4.959-0.677c0.074-0.461-0.039-0.826-0.489-1.04c-1.164-0.366-2.221,0.235-3.329,0.328
	c-1.8,0.675-3.638,0.809-5.518,0.43c-2.112-1.046-4.183,0.069-6.275,0.126c-1.151-0.156-2.282-0.434-2.332-1.859
	c-0.042-1.236,0.791-2.053,1.79-2.605c1.187-0.657,2.455-1.143,3.849-1.118c0.466,0.03,1.084-0.008,1.338,0.326
	c1.48,1.947,1.495,0.054,1.946-0.711c0.611-0.86,1.506-1.144,2.49-1.256c2.502-0.229,4.901,0.376,7.27,1.026
	c2.291,0.63,3.994,2.072,4.46,4.463c0.48,2.465,1.653,4.608,2.676,6.833C241.53,53.902,244.254,58.101,246.725,62.519z"/>
<path fill-rule="evenodd" clip-rule="evenodd" fill="#AE9984" d="M201.734,25.753c0.271-0.008,0.542-0.017,0.812-0.025
	c1.462,1.522,2.924,3.044,4.385,4.566c0.907,0.347,1.251,0.997,1.057,1.942c-2.095,5.253-2.883,5.835-8.423,4.129
	c-5.509-1.697-10.204-0.946-14.615,2.84c-3.76,3.229-8.392,4.292-13.274,4.191c-6.773-0.139-9.4-4.612-6.24-10.525
	c0.294-0.55,0.612-1.087,0.878-1.65c0.806-1.315,1.982-2.263,3.176-3.19c1.813-0.988,2.262-2.083,0.324-3.449
	c-0.688-0.485-1.283-1.092-1.76-1.805c-0.879-2.059-2.772-3.638-2.865-6.069c0.558-2.584,2.522-3.604,4.734-3.17
	c4.389,0.864,8.599,0.837,12.795-0.777c0.82-0.315,1.725,0.017,2.577,0.205c0.741,0.524,1.481,1.049,2.223,1.574
	c-0.063,1.752-1.525,1.128-2.43,1.386c-0.781,0.222-1.486,0.574-1.338,1.417c0.221,1.255,1.238,0.801,2.049,0.706
	c1.448-0.168,2.397-1.747,4.02-1.412c0.797,0.005,1.517,0.207,2.075,0.816c0.242,2.346,1.671,3.153,3.86,2.973
	c0.515,0.516,1.029,1.034,1.544,1.55c-0.155,0.943-2.915,0.875-1.002,2.61C197.91,25.933,199.298,28.271,201.734,25.753z"/>
<path fill-rule="evenodd" clip-rule="evenodd" fill="#9C8977" d="M185.295,12.966c-4.69,1.931-9.406,3.141-14.553,1.69
	c-2.292-0.646-4.482-0.115-5.003,2.845c-0.084,0.381-0.284,0.686-0.602,0.914c-0.184,0.042-0.368,0.082-0.553,0.124
	c-0.585-0.07-1.078-0.327-1.498-0.736c-1.202-2.114-0.683-3.557,1.675-4.279c0.421-0.192,0.958,1.854,1.333-0.09
	c0.112-0.583,0.715-0.967,1.218-1.329c1.895-1.211,3.803-0.606,5.682,0.011c2.191,0.718,4.262,1.044,6.252-0.629
	c1.157-0.973,2.507-0.854,3.754,0.023c0.254,0.002,0.509,0.004,0.763,0.005c0.917-0.469,1.098,0.325,1.442,0.838
	C185.217,12.562,185.247,12.764,185.295,12.966z"/>
<path fill-rule="evenodd" clip-rule="evenodd" fill="#BEAB94" d="M189.818,16.636c-1.051,1.396-2.222,2.493-4.147,2.63
	c-1.05,0.075-2.218,0.967-3.023-0.17c-0.737-1.041-0.607-2.387-0.021-3.505c0.609-1.163,1.749-1.23,2.889-0.88
	c0.712,0.22,1.389,0.551,2.002-0.171C188.284,15.238,189.051,15.937,189.818,16.636z"/>
<path fill-rule="evenodd" clip-rule="evenodd" fill="#AE9984" d="M72.771,85.719c-2.802-3.201-1.122-7.088-1.623-10.643
	c-0.121-5.314,2.183-9.642,5.683-13.375c2.988-3.188,5.755-6.456,7.659-10.463c1.449-3.049,3.773-5.5,6.425-7.651
	c2.976-2.414,4.679-5.334,5.192-9.435c0.808-6.445,4.224-11.591,10.362-14.512c0.551,0.199,0.861,0.602,0.988,1.16
	c-0.248,1.869-2.03,2.676-2.875,4.141c-0.964,1.671-0.629,2.533,1.388,2.518c1.521-0.011,3.162-0.885,4.476,0.623
	c-0.286,2.736-2.704,2.792-4.516,3.614c-4.375,0.084-6.868,2.055-7.163,6.667c-0.149,2.33-1.619,4.105-3.537,5.439
	c-2.18,1.516-3.833,3.484-5.042,5.838c-0.161,0.323-0.357,0.625-0.575,0.91c-2.968,5.932-2.633,7.792,2.188,11.977
	c0.944,0.82,1.847,1.682,2.699,2.596c5.494,5.892,15.905,7.166,22.492,2.755c2.716-1.819,2.663-3.675-0.167-5.339
	c-1.83-1.075-3.921-1.66-5.661-2.889c-1.013-0.715-2.191-1.67-1.572-3.043c0.533-1.188,1.917-0.977,3.029-0.768
	c2.329,0.434,4.613,1.059,7.02,1.068c8.053,0.035,12.205-4.453,11.442-12.468c-0.048-0.503-0.073-0.992,0.162-1.458
	c2.596-1.618,4.092-0.315,4.556,2.12c0.64,3.362-1.264,6.166-2.593,9.084c-1.365,2.997-2.569,6.036-6.687,5.805
	c-0.022-0.001-0.052,0.129-0.078,0.198c0.244,0.039,0.484,0.098,0.745,0.176c0.627,0.188,1.247,0.309,1.872,0.268
	c2.946-0.193,3.046,1.496,2.338,3.605c-1.136,3.385-3.595,5.794-6.571,7.412c-6.633,3.607-13.552,6.249-21.399,4.795
	c-1.657-0.307-3.495-0.484-5.119,0.489c-0.318,0.225-0.665,0.396-1.028,0.532c-7.131,0.203-13.7,2.828-20.542,4.998
	c4.556,1.824,9.286,2.567,14.109,2.926c1.646,0.122,3.55-0.461,4.603,1.514c-0.643,2.201-2.48,2.097-4.206,2.169
	c-5.836,0.244-11.569-0.513-17.245-1.819C73.359,86.93,72.902,86.454,72.771,85.719z"/>
<path fill-rule="evenodd" clip-rule="evenodd" fill="#9D8B7A" d="M107.247,20.497c-0.259-0.285-0.518-0.57-0.777-0.856
	c0.236-0.437,0.472-0.874,0.708-1.31c2.298-1.016,4.597-2.033,6.896-3.049c1.781,0.133,3.386-1.111,5.207-0.668
	c5.262,1.614,10.093-0.12,14.771-2.17c2.274-0.997,4.622-1.79,6.888-2.803c2.345-1.049,4.729-0.228,6.852,0.76
	c1.506,0.701,2.505,2.12,1.478,4.016c-0.89,0.461-1.72,0.104-2.49-0.277c-2.692-1.335-5.313-1.086-7.829,0.377
	c-5.662,3.291-11.713,4.507-18.259,4.182c-4.324-0.215-8.648,0.547-12.839,1.792C107.651,20.493,107.449,20.495,107.247,20.497z"/>
<path fill-rule="evenodd" clip-rule="evenodd" fill="#302421" d="M215.462,133.085c-1.195,1.085-2.634,0.542-3.983,0.593
	c-6.429-0.844-6.336-0.859-7.464-7.67c-0.571-3.447-1.27-6.879-1.807-10.336c-0.495-3.184-1.796-5.915-4.063-8.258
	c-3.551-3.668-5.364-8.059-5.125-13.242c0.156-3.391-0.568-6.719-0.927-10.069c-0.313-2.918-1.819-5.119-4.592-6.37
	c-5.892-2.657-11.913-4.014-18.117-1.25c-6.58,2.932-13.428,2.611-20.268,1.827c-10.125-1.161-14.672,2.205-16.192,12.335
	c-1.172,7.814-0.881,15.639-0.903,23.508c-0.02,6.605,1.521,10.722,7.546,13.637c2.402,1.163,4.649,3.854,3.666,7.409
	c-4.967-1.136-10.15-0.017-15.088-1.456c-1.226-0.967-1.215-2.582-1.997-3.781c-0.414-0.68-0.942-1.271-1.452-1.879
	c-0.418-0.518-0.761-1.083-1.051-1.682c-0.325-1.02-1.144-1.732-1.65-2.643c-1.191-4.045,0.862-7.813,1.005-11.763
	c0.309-8.583-0.839-16.665-7.045-23.204c-1.849-1.947-2.252-3.729-0.404-5.877c0.807-0.938,1.42-2.113,1.674-3.316
	c0.488-2.31,1.927-3.639,3.927-4.651c2.341-1.187,4.412-2.788,6.291-4.624c3.501-2.756,4.822-6.922,6.857-10.63
	c1.494-1.144,2.957-0.58,4.574-0.155c6.887,1.813,13.853,2.699,20.946,1.168c3.168-0.684,5.417-2.901,7.956-4.642
	c1.377-0.567,2.671-0.152,3.999,0.272c6.583,2.107,13.183,3.418,20.122,1.477c3.268-0.914,6.769,1.209,8.196,4.328
	c0.261,0.571,0.454,1.164,0.641,1.756c1.871,5.943,5.721,9.504,12.075,10.026c2.585,0.212,4.479,1.391,5.603,3.761
	c0.759,1.293,1.58,2.58,0.649,4.14c-4.676,3.831-5.562,9.079-5.719,14.718c-0.242,8.723,1.506,17.269,2.041,25.916
	C215.602,125.991,216.693,129.535,215.462,133.085z"/>
<path fill-rule="evenodd" clip-rule="evenodd" fill="#3D312D" d="M143.233,135.198c-1.48-4.177-3.964-7.36-8.278-9.008
	c-3.72-1.421-4.557-4.13-4-8.098c0.742-5.286-1.009-10.638-0.457-16.003c0.535-5.188,0.74-10.441,1.715-15.546
	c1.349-7.067,8.752-10.888,16.662-9.616c6.131,0.985,12.449,1.729,18.36-1.065c7.452-3.522,14.57-2.154,21.642,0.982
	c2.772,1.229,4.092,3.752,4.503,6.503c0.55,3.677,0.893,7.437,0.792,11.146c-0.136,4.993,1.629,9.053,5.131,12.371
	c2.306,2.186,3.616,4.749,3.94,7.83c0.557,5.309,2.552,10.411,2.258,15.836c-0.095,1.732,0.638,2.512,2.41,2.488
	c1.208-0.018,2.528-0.355,3.566,0.658c-12.688-0.844-25.294,1.39-37.997,0.952c-5.148-0.179-10.346,1.193-15.526,1.813
	C152.969,137.039,148.018,137.065,143.233,135.198z"/>
<path fill-rule="evenodd" clip-rule="evenodd" fill="#7B695B" d="M215.462,133.085c-1.446-7.819-1.725-15.763-2.522-23.65
	c-0.699-6.929-1.424-13.85,0.05-20.759c0.734-3.439,2.344-6.255,5.941-7.444c3.533,0.703,6.879,2.439,10.654,1.866
	c0.479-0.072,0.735,0.555,0.617,1.115l0.017,0.012c-0.764,1.299-1.931,2.291-2.722,3.566c-1.843,2.974-0.467,8.879,2.458,10.76
	c1.342,0.862,2.657,0.358,3.973,0.033c2.779-0.689,5.123-0.027,7.227,1.945c3.764,3.527,7.489,2.773,9.936-2.049
	c1.24-2.443,2.1-5.079,3.622-7.386c0.685-1.036,1.322-2.143,2.638-2.54c0.389-0.031,0.715,0.092,0.973,0.388
	c0.668,1.313-0.029,2.142-1.017,2.867c-0.039,0.964-0.078,1.929-0.118,2.894c-0.697,2.659-0.885,5.385-1.09,8.111
	c-0.151,2.012-0.425,3.994-2.063,5.446c-0.319,0.214-0.676,0.292-1.057,0.241c-1.232-0.58-0.537-3.177-2.807-2.687
	c-2.048,0.441-3.103,1.753-3.368,3.78c-0.08,0.607-0.258,1.186-0.637,1.689c-1.563,1.142-2.859,0.914-3.885-0.74
	c-0.58-1.637-0.976-3.336-2.007-4.813c-2.229-3.191-7.027-4.203-10.306-2.137c-1.651,1.041-0.946,1.973-0.004,3.003
	c1.383,1.51,3.646,1.654,4.959,3.26c-0.02,0.64-0.4,1.013-0.928,1.282c-5.968,0.424-10.768-4.008-11.53-10.715
	c-0.239-2.105-0.177-4.243-0.676-6.324c-0.33-1.381-0.685-2.799-2.418-2.895c-1.686-0.092-2.38,1.239-2.849,2.539
	c-1.398,3.879-1.183,7.938-0.567,11.857c0.928,5.902,2.417,11.716,4.058,17.467c1.081,3.787,2.164,4.471,5.941,4.042
	c2.145-0.244,4.23-0.289,6.308,0.294c2.37,0.664,3.221-0.27,2.994-2.633c-0.169-1.751-0.083-3.524,1.028-5.029
	c1.384-1.875,2.932-1.761,4.011,0.275c0.234,0.439,0.407,0.911,0.548,1.393c1.943,6.682,2.91,6.961,9.056,4.056
	c2.988-1.413,5.63-3.513,8.859-4.417c1.369,8.923-6.147,17.297-16.703,17.848c-4.83,0.251-9.66,0.566-14.488,0.771
	C222.394,139.891,217.663,138.641,215.462,133.085z"/>
<path fill-rule="evenodd" clip-rule="evenodd" fill="#9D8A79" d="M126.795,129.146c1.061,1.353,1.327,2.939,1.351,4.597
	c-0.467,0.994-0.934,1.986-1.401,2.979c-2.337,3.093-4.978,5.929-8.372,7.818c-3.852,2.145-7.854,3.927-12.225,0.991
	c-1.261-0.846-2.833-0.979-4.331-0.868c-5.445,0.404-10.021-1.31-13.667-5.409c-0.785-0.928-2.74-0.604-2.659-2.466
	c0.275-0.271,0.552-0.541,0.828-0.813c1.579-0.472,2.678-1.396,3.51-2.898c1.829-3.304,4.552-5.716,8.052-7.177
	c0.162-0.124,0.354-0.223,0.563-0.289c-0.453,0.065-0.764,0.421-1.178,0.576c-1.149,0.475-2.287,1.252-3.471,0.084
	c-0.518-0.008-1.035-0.016-1.553-0.023c-0.34-1.827,1.082-2.354,2.278-2.94c1.349-0.661,2.854-1.281,4.318-1.067
	c5.991,0.874,9.351-2.076,11.336-7.332c0.346-0.915,0.888-1.851,1.645-2.484c3.923-3.283,4.394-7.224,2.529-11.762
	c-0.612-1.49-0.824-3.132-1.292-4.687c-1.941-6.45-3.584-7.474-10.343-6.681c-3.499,0.411-6.804,1.227-9.608,3.492
	c-2.417-1.063-5.202-0.902-7.531-2.257c-0.376-2.077,1.205-1.686,2.309-1.754c1.607-0.099,3.231,0.087,4.832-0.081
	c1.664-0.174,3.161-0.73,3.669-2.604c0.39-0.683,1.01-0.988,1.762-1.081c3.775,1.11,7.096-0.559,10.426-1.846
	c2.812-1.086,0.4-3.249,0.752-4.868c0.82-0.844,1.979-0.513,2.945-0.864c0.735-0.178,1.486-0.254,2.23-0.179
	c2.906,0.295,3.478,1.336,2.152,3.902c-1.196,2.315-2.919,4.008-5.465,4.609c4.558,1.379,7.557,4.568,9.064,9.034
	c1.565,4.636,1.736,9.556,2.105,14.39c0.182,2.379-0.421,4.645-3.289,5.619c-3.744,1.273-5.245,5.701-3.382,9.338
	c-0.225,1.211-1.183,1.384-2.157,1.534c-3.974-0.755-7.74-0.478-11.007,2.247c-1.068,0.621-2.253,1.079-2.809,2.344
	c-0.837,1.907-2.661,3.809-1.53,5.902c1.056,1.951,3.397,0.818,5.155,0.908c3.597,0.185,7.204-0.234,10.694,1.276
	c2.301,0.996,4.325-0.201,6.19-1.643C122.931,134.625,124.633,131.691,126.795,129.146z"/>
<path fill-rule="evenodd" clip-rule="evenodd" fill="#9D8A79" d="M258.76,121.051c-3.203,4.248-8.263,5.339-12.776,7.191
	c-2.536,1.041-5.259-1.543-5.97-4.813c-0.337-1.554,0.137-4.28-1.938-4.028c-1.879,0.229-1.932,2.892-1.818,4.803
	c0.043,0.736,0.254,1.466,0.419,2.19c0.524,2.305-0.718,3.263-2.649,2.649c-3.295-1.046-6.521-1.141-9.883-0.588
	c-2.249,0.37-3.895-0.559-4.493-2.925c-2.31-9.136-5.75-18.049-5.186-27.738c0.126-2.178,0.616-4.189,1.577-6.092
	c0.8-1.581,2.034-2.529,3.952-2.01c1.646,0.445,2.808,1.04,2.89,3.21c0.087,2.335,0.605,4.657,0.652,7.039
	c0.114,5.837,5.031,10.733,10.46,10.571c1.166,0.365,2.21-0.547,3.363-0.327c0.995-0.011,2.144-0.293,2.954,0.149
	c4.967,2.709,9.037,0.301,13.143-2.092c1.885-2.984,1.261-6.558,2.287-9.746c0.415-1.293,0.527-2.693,1.444-3.792
	c-0.341,8.09,0.749,16.086,1.616,24.095c0.078,0.719,0.453,1.404,0.691,2.104C259.251,120.955,259.006,121.004,258.76,121.051z"/>
<path fill-rule="evenodd" clip-rule="evenodd" fill="#7C6A5C" d="M88.554,138.282c3.79,4.197,8.476,5.897,14.1,5.233
	c1.062-0.126,2.432-0.045,3.247,0.527c6.178,4.338,10.767,0.688,15.299-2.955c1.834-1.475,3.247-3.475,5.544-4.366
	c0.853,2.146-2.618,3.042-1.518,5.258c-1.281-0.076-2.377,0.232-3.035,1.454c-0.223,1.282-1.14,1.545-2.246,1.531
	c-1.495,0.747-2.989,1.494-4.483,2.24c-2.046,2.191-4.959,2.867-7.472,2.375c-5.561-1.09-11.3-1.444-16.659-3.51
	c-1.967-1.081-3.459-2.534-3.807-4.882C87.511,140.095,87.54,139.013,88.554,138.282z"/>
<path fill-rule="evenodd" clip-rule="evenodd" fill="#CEAD63" d="M288.493,109.719c-9.534,0.308-18.035-1.186-26.607-1.525
	c-2.483-0.099-4.134-1.016-3.969-4.126c0.18-3.388,2.479-2.561,4.274-2.527c13.673,0.253,27.329,0.838,40.854,3.02
	c1.388,0.224,3.864-0.005,3.747,2.071c-0.102,1.783-2.477,2.054-3.963,2.19C297.758,109.291,292.706,110.338,288.493,109.719z"/>
<path fill-rule="evenodd" clip-rule="evenodd" fill="#9C7644" d="M257.307,91.81c0.244-1.021,0.488-2.04,0.731-3.061
	c1.3-0.68,2.713-0.417,4.044-0.32c18.527,1.344,37.111,0.918,55.651,1.813c6.174,0.299,12.283-0.884,18.572,0.139
	c4.122,0.669,8.629-0.678,12.997-0.462c1.854,0.093,3.767-0.083,5.411,1.073c0.025,0.635-0.188,1.157-0.722,1.527
	c-22.055-0.012-44.107-0.093-66.16-0.008C277.646,92.551,267.499,91.286,257.307,91.81z"/>
<path fill-rule="evenodd" clip-rule="evenodd" fill="#836239" d="M332.228,88.701c7.396,2.452,15.055,1.185,22.597,1.587
	c-0.028,0.235-0.064,0.47-0.11,0.704c-8.24-0.869-16.548,1.971-24.782-0.566c-3.067-0.945-6.156,0.566-9.262,0.564
	c-10.74-0.004-21.482,0.194-32.217-0.059c-9.316-0.219-18.621-0.929-27.929-1.472c-0.84-0.05-1.659-0.466-2.487-0.711
	c0.001,0-0.081,0.003-0.081,0.003c-0.716-1.188-0.651-2.107,0.867-2.53c8.599,1.31,17.21,2.073,25.893,0.722
	c1.063-0.165,2.227-0.31,3.28,0.26c10.263-0.652,20.265,2.057,30.458,2.378C323.089,89.728,327.64,89.035,332.228,88.701z"/>
<path fill-rule="evenodd" clip-rule="evenodd" fill="#AE9984" d="M93.001,92.499c2.832-3.451,12.82-6.014,16.79-4.204
	c1.657,0.755,2.72,2.227,3.249,3.948c1.316,4.284,2.587,8.585,3.78,12.905c0.589,2.133-0.239,3.985-1.796,5.412
	c-2.728,2.499-4.547,5.549-5.935,8.932c-1.111,2.707-3.068,3.965-6.152,3.816c-3.822-0.184-7.815-0.514-10.694,2.939
	c-0.405,0.285-0.929,0.487-1.199,0.869c-3.471,4.913-8.394,5.288-13.641,4.223c-3.976-0.806-7.854-0.828-11.812,0.076
	c-4.953,1.131-6.495-0.673-5.045-5.614c0.74-2.521,1.39-5.169,2.991-7.218c3.782-4.836,3.83-10.162,3.072-15.87
	c-0.556-4.185,0.549-8.343,1.282-12.476c0.292-1.643,1.151-1.832,2.65-1.411c1.957,0.548,3.724,2.02,5.957,1.369
	c1.69-1.632,3.364-1.856,5.016,0.057c1.743,3.638-0.964,6.726-1.255,10.108c0.186,1.804-0.481,3.551-0.389,5.611
	c0.036-0.893-0.026-1.533,0.081-2.171c0.413-2.793,0.318-5.692,1.796-8.252c0.225-0.552,0.54-1.045,0.942-1.484
	c0.867-0.813,1.7-1.774,3.029-0.772c0.796,1.488-0.213,2.723-0.791,3.849c-2.166,4.22-2.793,8.734-2.773,13.356
	c0.015,3.546-1.592,5.872-4.618,7.479c-3.279,1.741-6.651,3.354-9.407,6.27c5.613-0.475,11.063,0.879,16.602,0.814
	c1.915-0.022,3.724-0.52,5.275-1.657c3.401-2.495,7.161-3.993,11.368-4.394c1.953-0.186,3.523-1.131,4.826-2.587
	c4.919-5.494,7.757-11.342,4.771-18.991c-1.893-4.85-3.447-6.213-8.484-5.29c-1.47,0.271-2.925,0.642-4.423,0.71
	c-1.98-0.219-2.478,0.718-1.913,2.482c0.197,1.13,0.332,2.258,0.214,3.403c-0.204,1.374,0.194,3.013-1.615,3.679
	c-2.453-2.793-2.66-6.233-2.794-9.696C92.236,92.324,92.585,92.251,93.001,92.499z"/>
<path fill-rule="evenodd" clip-rule="evenodd" fill="#BFAC94" d="M88.554,138.282c-0.051,0.985-0.102,1.972-0.153,2.958
	c-6.663-2.297-12.664,0.071-18.87,2.742c7.362,2.164,14.667,1.193,21.926,1.086c5.191,1.778,10.752,1.79,16.002,3.453
	c2.61,0.828,5.274-1.133,8.004-1.315c0.517,0.26,1.035,0.521,1.552,0.78c-1.238,2.659-4.167,1.43-6.39,2.901
	c3.507-0.319,6.669-0.106,10.009-0.406c-0.428-1.201-2.484-0.848-2.139-2.455c2.602,0.177,6.592-0.78,6.848,2.382
	c0.172,2.137-3.94,1.842-6.357,2.152c-12.014,1.544-24.084,1.651-36.152,1.391c-9.758-0.211-19.537-0.258-29.249-1.479
	c-0.853-0.107-2.034-0.035-1.973-1.163c0.059-1.079,1.239-1.038,2.104-1.039c7.36-0.011,14.721,0.013,22.082-0.014
	c1.577-0.006,3.276,0.31,4.551-1.107c-0.786-1.049-1.911-1.174-3.033-1.123c-8.983,0.408-17.864-0.906-26.783-1.562
	c-1.932-0.142-4.891-0.01-5.028-2.082c-0.161-2.41,2.493-4.143,4.831-4.391c3.481-0.368,6.719-1.934,10.269-1.812
	c0.548,0.019,1.113-0.436,1.671-0.671c0.482,0.004,0.964,0.006,1.446,0.009c1.013,0.725,2.019-1.134,3.033-0.009
	c1.505-0.017,3.01-0.032,4.515-0.049c3.193-0.812,6.383-1.654,9.708-0.753c1.504,0.026,3.01,0.053,4.515,0.08
	C86.233,137.859,87.873,137.088,88.554,138.282z"/>
<path fill-rule="evenodd" clip-rule="evenodd" fill="#7E6C5E" d="M80.997,90.252c-1.486-1.121-3.001,0.22-4.498-0.055
	c-1.026-1.852-3.822-1.487-4.588-3.665c0.532-0.471,1.081-0.467,1.646-0.062c5.87-0.086,11.549,1.938,17.447,1.569
	c1.588-0.1,3.327,0.313,4.315-1.491c0.443-0.431,0.909-0.504,1.406-0.089c0.923,0.278,1.951,0.767,0.398,1.444
	c-2.223,0.971-4.523,1.775-7.074,1.658c-1.517-0.07-3.203-0.592-4.557,0.684c0.121,1.917-2.047,2.711-2.205,4.491
	c-0.258,0.259-0.517,0.518-0.775,0.776c-1.134,0.18-1.039-0.646-1.129-1.354C81.217,92.861,81.767,91.49,80.997,90.252z"/>
<path fill-rule="evenodd" clip-rule="evenodd" fill="#7F6D5E" d="M98.274,126.271c-3.227,2.49-6.815,4.621-8.747,8.436
	c-0.73,1.443-1.97,1.28-3.208,1.269c3.588-2.392,4.253-7.033,7.476-9.704c1.229-0.268,2.458-0.535,3.687-0.803
	C98.27,125.22,98.444,125.575,98.274,126.271z"/>
<path fill-rule="evenodd" clip-rule="evenodd" fill="#9D8A79" d="M80.978,136.708c-3.287-0.405-6.444,0.86-9.708,0.753
	C74.376,135.533,77.627,135.486,80.978,136.708z"/>
<path fill-rule="evenodd" clip-rule="evenodd" fill="#847160" d="M73.557,86.471c-0.548,0.021-1.096,0.041-1.645,0.062
	c-0.843-0.141-1.653-0.327-1.939-1.574c1.145-0.458,1.891,0.573,2.798,0.762C73.033,85.97,73.295,86.221,73.557,86.471z"/>
<path fill-rule="evenodd" clip-rule="evenodd" fill="#9D8A79" d="M66.755,137.51c-1.011-0.146-2.019,1.176-3.033,0.009
	C64.732,137.114,65.74,136.195,66.755,137.51z"/>
<path fill-rule="evenodd" clip-rule="evenodd" fill="#CDBDAE" d="M98.159,162.844c8.313-2.241,16.292-2.347,24.036-3.912
	c1.381-0.278,3.023-0.178,3.526,1.238c0.583,1.641-1.025,2.459-2.259,2.892c-7.809,2.74-15.753,3.017-23.768,0.975
	C99.292,163.935,98.977,163.494,98.159,162.844z"/>
<path fill-rule="evenodd" clip-rule="evenodd" fill="#CDBDAE" d="M66.131,169.2c-6.861,0.784-12.849,1.181-18.833-0.359
	c-0.591-0.151-1.364-0.516-1.165-1.208c0.378-1.313,1.922-1.552,2.73-1.361c3.931,0.922,7.981-0.104,11.861,0.896
	C62.245,167.558,63.993,167.24,66.131,169.2z"/>
<path fill-rule="evenodd" clip-rule="evenodd" fill="#CBBBAA" d="M118.496,148.026c0.304,0.205,0.582,0.522,0.914,0.597
	c1.385,0.311,3.761-0.053,3.693,1.561c-0.079,1.888-2.436,1.624-3.967,1.539c-3.787-0.211-7.616,0.729-11.834-0.368
	c2.949-2.83,6.723-2.008,9.713-3.368C117.509,148,118.003,148.014,118.496,148.026z"/>
<path fill-rule="evenodd" clip-rule="evenodd" fill="#847161" d="M87.762,158.516c8.308-1.557,16.659,1.285,24.975-0.304
	c-8.243,2.729-16.678,0.275-24.987,1.039c-0.268-0.168-0.355-0.333-0.262-0.495C87.578,158.596,87.669,158.516,87.762,158.516z"/>
<path fill-rule="evenodd" clip-rule="evenodd" fill="#827061" d="M102.747,166.786c3.303,0.106,6.63-0.35,9.916,0.71
	c-3.288,0.758-6.574,1.397-9.917,0.019c-0.281-0.163-0.374-0.324-0.28-0.486C102.558,166.867,102.651,166.786,102.747,166.786z"/>
<path fill-rule="evenodd" clip-rule="evenodd" fill="#8A7868" d="M81.764,165.979c-2.213,0-4.428,0-6.642,0
	c2.237-0.082,4.29-2.424,6.629-0.748c0.281,0.162,0.376,0.326,0.287,0.494C81.948,165.894,81.857,165.979,81.764,165.979z"/>
<path fill-rule="evenodd" clip-rule="evenodd" fill="#806E5E" d="M102.747,166.786c0.001,0.243,0.001,0.485-0.001,0.729
	c-2.529,0.05-5.057,0.089-7.495-0.763c-0.267-0.162-0.355-0.322-0.268-0.484s0.176-0.243,0.266-0.243
	C97.748,166.278,100.247,166.531,102.747,166.786z"/>
<path fill-rule="evenodd" clip-rule="evenodd" fill="#B9A691" d="M119.946,144.965c0.749-0.51,1.497-1.02,2.246-1.53
	c0.677,0.201,1.717,0.412,1.109,1.317C122.419,146.068,121.146,146.135,119.946,144.965z"/>
<path fill-rule="evenodd" clip-rule="evenodd" fill="#7F6C5C" d="M95.248,166.024c0.001,0.242,0.002,0.484,0.002,0.728
	c-1.999-0.27-4.143,0.646-6.007-0.731c-0.281-0.163-0.373-0.325-0.278-0.486c0.094-0.159,0.188-0.239,0.283-0.239
	C91.249,165.538,93.248,165.781,95.248,166.024z"/>
<path fill-rule="evenodd" clip-rule="evenodd" fill="#7E6B5C" d="M89.248,165.295c0.001,0.241-0.001,0.483-0.005,0.726
	c-2.493-0.014-4.986-0.027-7.479-0.041c-0.01-0.25-0.014-0.499-0.013-0.749C84.25,165.252,86.75,165.273,89.248,165.295z"/>
<path fill-rule="evenodd" clip-rule="evenodd" fill="#8F7C6B" d="M87.762,158.516c-0.008,0.245-0.013,0.49-0.013,0.735
	c-1.187,0-2.373,0-3.56,0c-0.006-0.245-0.012-0.49-0.018-0.735C85.368,158.516,86.565,158.516,87.762,158.516z"/>
<path fill-rule="evenodd" clip-rule="evenodd" fill="#9D8A79" d="M258.63,86.449c-0.675,0.635-0.62,1.484-0.673,2.303
	c-2.68,2.411-4.175,5.581-5.226,8.893c-1.053,3.324-3.601,4.993-6.323,6.497c-1.783,0.985-3.485,0.292-4.596-1.298
	c-2.424-3.466-5.455-4.542-9.366-2.734c-1.649,0.764-2.765,0.16-3.867-1.16c-5.001-5.99-4.622-9.647,1.641-14.725
	c0.008,1.621-1.454,2.528-1.9,3.942c-0.694,2.199-0.41,4.197,1.287,5.781c1.488,1.388,3.175,1.007,4.751,0.052
	c1.979-1.199,4.359-0.596,6.396-1.495c0.595,0.724,1.663,0.023,2.256,0.752c-0.764,1.067-2.106,0.51-3.957,1.345
	c3.248,1.206,5.767,2.296,8.381,3.05c1.429,0.412,2.691-0.183,3.045-1.938c1.11-5.523,3.275-10.727,4.923-16.087
	c0.75-2.44,0.153-4.973,0.389-7.453c1.481,1.475,1.974,3.381,2.334,5.346c0.363,1.521,0.413,3.075,1.16,4.563
	C259.992,83.494,260.113,85.186,258.63,86.449z"/>
<path fill-rule="evenodd" clip-rule="evenodd" fill="#54473B" d="M258.63,86.449c0.3-3.004-1.123-5.91-0.507-8.932
	c0.402,2.398,1.854,2.632,3.901,2.052c5.161-1.462,10.342-2.188,15.47,0.185c-0.889,1.127-2.184,0.991-3.396,1.067
	c-1.107,0.069-2.238-0.042-3.319,0.233c-1.532,0.389-3.745,0.649-3.623,2.491c0.13,1.962,2.388,1.695,3.939,1.823
	c1.229,0.102,2.471,0.078,3.697-0.092c2.799-0.387,4.962-1.451,4.952-4.765c2.49,0.854,4.813,2.071,5.857,4.595
	c0.521,1.256,1.75,1.246,2.395,2.097c-8.977,2.976-18.091,1.156-27.164,0.79C259.706,87.949,258.917,87.602,258.63,86.449z"/>
<path fill-rule="evenodd" clip-rule="evenodd" fill="#5F5347" d="M279.744,80.513c1.789,2.037,1.786,3.392-1.026,4.717
	c-3.624,1.708-7.225,1.509-10.904,0.834c-1.21-0.222-2.489-0.999-2.713-2.308c-0.253-1.477,1.177-1.98,2.206-2.664
	c3.188-2.117,6.764-1.113,10.188-1.338C278.244,80.007,278.994,80.26,279.744,80.513z"/>
<path fill-rule="evenodd" clip-rule="evenodd" fill="#9D8A79" d="M230.203,84.213c-0.42-0.201-0.948-0.677-1.246-0.563
	c-3.926,1.521-7.143,0.285-10.025-2.419c-0.469-1.006-0.937-2.013-1.405-3.02c-0.564-3.516-0.564-3.516,3.731-4.391
	c-5.321,1.94-8.753-2.917-12.886-6.125c0.164,0.664,0.879,0.793,1.244,1.269c0.547,0.715,1.074,1.467,0.511,2.355
	c-0.65,1.025-1.696,0.907-2.675,0.624c-3.149-0.909-4.761-3.478-6.218-6.079c-2.546-4.546-2.284-5.472,1.887-8.594
	c0.756-0.378,1.353-1.258,2.387-0.774c1.46,0.684,2.274,1.961,2.786,3.37c3.668,10.1,14.359,12.639,23.507,9.721
	c2.081-0.664,4.115-1.473,6.34-1.844c-2.901,3.197-6.935,4.326-10.672,5.963c-0.786,0.345-1.702,0.387-2.494,0.72
	c-1.333,0.56-3.568,0.335-3.799,1.822c-0.271,1.743,1.556,3.097,2.944,3.991c3.054,1.968,4.74,3.387,10.636-1.233
	c0.075-0.429,0.326-0.678,0.758-0.743c0.6,0.113,1.527,0.38,1.131,1.01C235.13,81.68,233.063,83.497,230.203,84.213z"/>
<path fill-rule="evenodd" clip-rule="evenodd" fill="#BFAC95" d="M235.487,55.768c2.733,0.938,5.048,2.475,6.581,4.957
	c1.332,2.154,1.297,3.806-1.841,4.042c-3.083,0.231-6.136,0.654-9.048-0.993c-1.131-0.64-2.499-0.86-4.005-1.352
	c0.213,0.54,0.231,0.795,0.364,0.895c1.365,1.013,4.41,0.785,4.191,2.438c-0.283,2.138-3.212,1.581-5.011,2.046
	c-8.167,2.108-14.387-3.237-15.798-9.704c-0.468-2.144-0.325-4.349,2.427-4.45c5.093-0.188,10.128-1.383,15.248-0.859
	c0.571,0.059,1.106,0.464,1.657,0.709c-0.646,0.919-1.689,0.916-2.638,1.15c-0.935,0.232-2.234,0.15-2.465,1.291
	c-0.264,1.297,0.996,1.927,1.897,2.469c3.224,1.936,6.805,2.533,10.54,2.93C237.839,58.816,234.739,58.066,235.487,55.768z"/>
<path fill-rule="evenodd" clip-rule="evenodd" fill="#C0AC94" d="M245.242,72.992c0.637-2.635,2.552-3.192,4.833-2.72
	c2.197,0.455,2.755,2.078,2.712,4.219c-0.1,4.841-2.005,9.136-3.805,13.466c-0.686,1.648-2.061,2.535-3.877,2.271
	c-3.177-0.462-6.346-0.997-9.495-1.615c-1.132-0.223-1.688-1.049-1.13-2.245c0.783-1.681,1.415-3.485,3.267-4.371
	c1.624,0.54,3.164,1.138,5.01,0.843c4.918-0.789,6.475-2.63,6.479-7.608C249.239,71.818,246.542,73.775,245.242,72.992z"/>
<path fill-rule="evenodd" clip-rule="evenodd" fill="#9D8A79" d="M199.54,50.545c1.077,1.87-1.246,3.136-0.885,4.924
	c3.686,1.261,5.282-1.314,6.809-4.066c1.351,1.698,0.609,3.024,0.025,4.355c-1.044,0.757-2.036,1.576-2.978,2.457
	c-2.679,1.306-5.326,1.333-7.474-0.857c-0.701-0.715-0.885-0.376-1.356-0.111c-4.444,2.486-8.907,1.567-13.382,0.085
	c-1.638-0.534-3.265-1.081-4.981-1.3c-1.639-0.209-2.961-0.925-2.699-2.792c0.299-2.138,1.984-2.251,3.674-1.936
	c0.966,0.181,1.931,0.354,2.898,0.481c4.843,1.973,9.67,3.875,14.845,0.842c0.899-0.527,1.558-1.146,2.117-1.961
	c0.874-0.924,1.876-1.136,3.022-0.545C199.296,50.261,199.418,50.402,199.54,50.545z"/>
<path fill-rule="evenodd" clip-rule="evenodd" fill="#CDBDAF" d="M245.242,72.992c1.354-0.756,2.644-2.303,4.329-0.983
	c1.515,1.185,0.972,2.924,0.64,4.496c-1.441,6.824-2.4,7.606-9.272,7.743c-1.651,0.033-3.002-0.26-3.191-2.251
	C240.188,78.947,243.212,76.383,245.242,72.992z"/>
<path fill-rule="evenodd" clip-rule="evenodd" fill="#CEBEAE" d="M235.487,55.768c0.29,0.403,0.572,0.813,0.87,1.209
	c1.209,1.606,4.242,2.951,2.902,4.992c-1.081,1.648-3.932,0.252-5.971-0.211c-3.15-0.714-6.299-1.341-8.73-3.813
	c-2.229-2.267-2.112-2.885,0.89-3.971c1.596-0.578,3.198-0.392,4.805-0.479C232.327,53.496,233.52,55.524,235.487,55.768z"/>
<path fill-rule="evenodd" clip-rule="evenodd" fill="#9C8A79" d="M217.502,41.498c-1.746,0.065-3.488,0.411-4.795,1.547
	c-1.851,1.611-0.772,2.165,1.05,2.209c0.375,0.319,0.962,0.449,0.984,1.084c-0.544,1.365,0.153,1.527,1.346,1.651
	c1.367,0.142,3.339-0.651,3.665,1.762c-2.402,0.825-4.887,0.866-7.378,0.717c-1.128-0.068-2.616-0.269-2.768-1.467
	c-0.492-3.899-2.682-1.373-3.521-0.741c-2.006,1.509-4.115,2.232-6.545,2.284c0,0.001-0.053-0.066-0.053-0.066
	c-0.23-1.374,0.916-1.652,1.753-2.008c5.055-2.145,7.395-5.908,7.003-11.388c-0.044-0.618,0.118-1.227,0.382-1.794
	c0.184-0.316,0.443-0.557,0.769-0.723c1.485,0.155,1.84,1.373,2.198,2.485c0.416,1.287,1.278,1.948,2.534,2.222
	C215.262,40,217.329,39.324,217.502,41.498z"/>
<path fill-rule="evenodd" clip-rule="evenodd" fill="#C0AC95" d="M235.514,78.264c-0.252,0.248-0.505,0.495-0.758,0.743
	c-2.329,0.231-4.582,0.985-6.985,0.776c-1.569-0.136-2.754-0.687-2.953-2.249c-0.201-1.573,1.086-2.065,2.372-2.27
	c3.232-0.514,6.147-1.835,9.012-3.343c0.803-0.424,1.75-1.33,2.637-0.205c0.75,0.951,0.18,1.952-0.369,2.752
	C237.563,75.788,236.506,77.004,235.514,78.264z"/>
<path fill-rule="evenodd" clip-rule="evenodd" fill="#AC9985" d="M213.719,39.984c-1.792,0.166-3.09-0.176-3.035-2.435
	c0.026-1.096-0.56-2.08-1.399-2.848c-0.744-0.371-1.331-0.798-0.613-1.697c1.023-0.474,1.967-0.096,2.775,0.448
	c3.35,2.251,7.464,3.103,10.561,5.802c0.309,0.226,0.618,0.451,0.927,0.676c-0.869,0.102-1.824-0.047-2.436,0.821
	C218.193,40.898,216.028,39.809,213.719,39.984z"/>
<path fill-rule="evenodd" clip-rule="evenodd" fill="#AB9783" d="M219.751,49.751c-2.347-1.801-5.335,0.153-7.8-1.239
	c0.201-1.612,1.982-1.407,2.573-2.458c0.394-0.441,0.932-0.585,1.475-0.721c2.769-0.021,5.377,1.073,8.131,1.166
	c0.19,0.203,0.271,0.419,0.241,0.648c-0.029,0.235-0.071,0.353-0.125,0.353C222.757,48.27,221.816,50.131,219.751,49.751z"/>
<path fill-rule="evenodd" clip-rule="evenodd" fill="#816E5F" d="M224.252,46.755c-2.883,1.204-5.472-0.644-8.224-0.792
	c0.927-1.934,2.423-0.979,3.779-0.745c1.996-0.21,3.992-0.419,5.989-0.628c0.429,0.251,0.967,0.406,0.933,1.065
	C226.217,46.729,225.486,47.311,224.252,46.755z"/>
<path fill-rule="evenodd" clip-rule="evenodd" fill="#BAA691" d="M224.252,46.755c0.779-0.481,1.558-0.961,2.337-1.442
	c0.341-0.475,0.833-0.539,1.362-0.509c0.662,0.241,1.26,0.56,1.52,1.28c-0.079,0.724,2.501,1.923-0.258,2.107
	c-1.637,0.108-3.479,0.671-4.967-0.69C224.252,47.252,224.254,47.003,224.252,46.755z"/>
<path fill-rule="evenodd" clip-rule="evenodd" fill="#897767" d="M213.719,39.984c2.404-1.016,4.661-0.735,6.78,0.768
	c-0.125,3.76-1.969,0.613-2.997,0.746C216.576,40.157,214.622,41.384,213.719,39.984z"/>
<path fill-rule="evenodd" clip-rule="evenodd" fill="#9C8875" d="M243.01,93.257c-0.827-0.024-1.694,0.071-2.256-0.752
	c2.284-0.051,4.582,0.182,7.308-0.633C246.389,93.891,244.889,94.377,243.01,93.257z"/>
<path fill-rule="evenodd" clip-rule="evenodd" fill="#877463" d="M219.807,45.219c-1.268,0.208-2.701-0.418-3.779,0.745
	c-0.501,0.029-1.002,0.059-1.503,0.089c-0.256-0.266-0.512-0.532-0.767-0.798C215.771,44.906,217.78,43.669,219.807,45.219z"/>
<path fill-rule="evenodd" clip-rule="evenodd" fill="#7A6758" d="M227.952,45.285c-0.454,0.009-0.909,0.018-1.364,0.027
	c-0.264-0.241-0.529-0.482-0.793-0.723c1.219-0.327,2.432-1.06,3.672-0.062C229.535,45.929,228.78,45.679,227.952,45.285z"/>
<path fill-rule="evenodd" clip-rule="evenodd" fill="#948371" d="M202.52,57.287c0.73-1.013,1.784-1.399,2.969-1.529
	c0.01,0.246,0.016,0.493,0.019,0.739c-0.514,0.497-1.029,0.992-1.543,1.489C203.572,57.567,202.838,57.858,202.52,57.287z"/>
<path fill-rule="evenodd" clip-rule="evenodd" fill="#8B7662" d="M227.952,45.285c0.506-0.253,1.011-0.505,1.516-0.757
	c0.338,0.287,0.898,0.531,0.966,0.871c0.119,0.612-0.553,0.558-0.963,0.683C228.965,45.817,228.459,45.551,227.952,45.285z"/>
<path fill-rule="evenodd" clip-rule="evenodd" fill="#7F6D5F" d="M139.494,9.225c7.088,1.817,12.986-2.684,19.543-3.685
	c2.524-0.279,4.955,0.314,7.399,0.785c0.824,0.126,1.164,0.676,1.261,1.441c-0.038,0.359-0.176,0.675-0.411,0.949
	c-0.319,0.167-0.658,0.252-1.019,0.252c-0.532-0.062-1.029-0.242-1.515-0.455c-4.164-1.212-8.094,0.29-12.09,1.025
	c-1.183,0.217-1.627,0.958-1.697,2.1c-0.067,1.097-0.004,2.29-1.187,2.958c-0.174-0.032-0.349-0.065-0.522-0.1
	c-1.24-3.579-3.968-5.072-7.752-3.993c-3.233,0.922-6.447,1.943-9.431,3.57c-3.408,1.858-7.119,2.098-10.901,1.913
	c-0.964-0.047-1.726-0.275-1.892-1.374c5.083-0.621,10.341-0.408,14.979-3.145c0.407-0.365,0.602-1.14,1.41-0.731
	C137.129,10.697,138.261,9.834,139.494,9.225z"/>
<path fill-rule="evenodd" clip-rule="evenodd" fill="#7B695B" d="M167.246,8.509c0.006-0.267,0.013-0.533,0.02-0.8
	c1.235-0.656,2.473-0.877,3.718-0.022c2.003,0.255,4.007,0.51,6.01,0.765c1.757,0.748,3.513,1.498,5.27,2.246
	c0.246,0.271,0.491,0.542,0.737,0.813c-0.958,0.134-2.43-0.079-2.792,0.457c-2.513,3.728-5.538,1.795-8.4,0.903
	c-1.599-0.498-3.061-0.829-4.558,0.13c-0.727,0.205-1.049-0.24-1.299-0.806C165.569,10.682,166.28,9.55,167.246,8.509z"/>
<path fill-rule="evenodd" clip-rule="evenodd" fill="#BEAB95" d="M195.743,25.01c-1.316-0.211-2.238-1.153-1.788-2.279
	c0.569-1.423,2.209-0.474,3.343-0.755c0.486,0.264,0.972,0.529,1.458,0.793c-0.005,0.242-0.002,0.484,0.01,0.727
	c-0.756,0.647-1.791,0.738-2.589,1.304C196.034,24.873,195.889,24.941,195.743,25.01z"/>
<path fill-rule="evenodd" clip-rule="evenodd" fill="#BEAB95" d="M201.734,25.753c0.02,2.817-1.8,2.612-3.461,1.821
	c-1.02-0.484-1.699-1.686-2.53-2.564c0,0,0.011-0.017,0.011-0.017c0.803-1.355,1.781-1.459,2.962-0.453
	c0.663,0.566,0.985,1.807,2.272,1.22C201.237,25.755,201.486,25.753,201.734,25.753z"/>
<path fill-rule="evenodd" clip-rule="evenodd" fill="#C2AF9B" d="M200.988,25.76c-1.073,1.171-2.046,0.693-2.723-0.353
	c-0.76-1.176-1.576-0.891-2.512-0.414c-0.075-2.669,1.594-1.832,3.012-1.498C199.507,24.25,200.248,25.005,200.988,25.76z"/>
<path fill-rule="evenodd" clip-rule="evenodd" fill="#9D8A79" d="M207.592,31.808c0.311,0.459,0.62,0.919,0.931,1.378
	c0.254,0.505,0.508,1.012,0.761,1.517c0,0-0.047,0.072-0.047,0.072c-0.634,1.386-0.542,2.906-0.694,4.358
	c-0.568,5.386-3.657,8.492-8.635,10.07c-1.102,0.35-2.333,0.938-3.111-0.095c-1.013-1.344,0.372-2.216,1.15-3.12
	c0.317-0.369,0.787-0.589,1.054-1.015c-7.29,3.954-13.083,4.749-22.864,3.132c2.682,0.56,5.449,0.64,8.09,1.421
	c0.7,0.207,1.63,0.384,1.673,1.241c0.059,1.152-1.047,1.354-1.85,1.403c-3.368,0.206-6.706-0.116-10-0.855
	c-7.252-0.514-10.873-3.585-12.343-10.473c0.161,1.942,0.278,3.874-1.364,5.361c-2.154-0.272-2.376-1.995-2.404-3.568
	c-0.043-2.449-1.187-3.236-3.48-3.014c-2.538,0.246-4.871-0.416-6.934-1.961c-1.343-1.057-2.209-2.363-2.191-4.138
	c0.033-0.604,0.21-1.161,0.578-1.647c2.182-1.011,2.651,1.536,4.132,1.986c5.226,2.991,9.519-0.9,14.184-1.966
	c1.018-0.232,1.773-1.471,3.053-0.835c-0.371,0.914-0.653,1.875-1.126,2.733c-2.572,4.662-0.426,8.344,4.96,8.459
	c5.113,0.109,9.828-0.924,13.784-4.466c3.892-3.484,8.462-4.937,13.393-2.894C202.561,36.662,205.713,36.542,207.592,31.808z"/>
<path fill-rule="evenodd" clip-rule="evenodd" fill="#C0AC94" d="M182.243,22.742c5.547-1.968,8.449-0.828,8.255,3.241
	c-0.234,4.904-6.206,8.876-10.802,7.098c-1.488-0.576-2.859-0.647-4.363-0.188c-1.209,0.368-2.267-0.259-2.983-1.129
	c-0.938-1.139-0.025-2.226,0.667-2.992c1.742-1.931,3.678-3.678,6.241-4.513c1.281,1.422,3.339,1.47,4.745,2.695
	c0.565,0.492,1.301,0.864,1.848-0.056c0.421-0.707,0.218-1.422-0.246-2.052C184.765,23.705,183.054,23.94,182.243,22.742z"/>
<path fill-rule="evenodd" clip-rule="evenodd" fill="#9E8A79" d="M168.75,22.751c0.494,0.34,0.987,0.681,1.481,1.021
	c3.54,2.44,3.54,2.44,0.046,4.991c-0.283-0.247-0.778-0.59-0.958-0.4c-2.875,3.003-7.258,2.91-10.517,5.228
	c-2.666,1.896-5.79,2.01-8.824,0.475c-1.628-0.688-2.216-2.617-3.89-3.251c-0.302-0.16-0.588-0.346-0.865-0.542
	c-1.219-0.641-2.845-0.339-3.788-1.625c-0.202-0.571-0.144-1.107,0.195-1.613c2.88-0.986,5.768-1.939,8.826-2.208
	c1.827,4.055,5.941,5.029,10.274,2.333c1.884-1.172,3.602-2.606,5.6-3.607C167.108,23.206,167.846,22.725,168.75,22.751z"/>
<path fill-rule="evenodd" clip-rule="evenodd" fill="#7C6A5C" d="M150.007,33.243c3.53,1.43,6.804,1.071,9.707-1.482
	c0.768-0.675,1.565-1.427,2.559-1.388c3.173,0.129,5.321-1.404,6.782-4.093c0.89,0.788,1.124,1.605,1.222,2.485
	c-0.999,0.765-1.998,1.53-2.997,2.296c-5.599,3.22-11.111,6.865-18.013,3.646C148.809,33.861,148.607,33.146,150.007,33.243z"/>
<path fill-rule="evenodd" clip-rule="evenodd" fill="#BFAB93" d="M173.403,22.743c-2.818,0.159-4.073-1.636-4.471-3.999
	c-0.222-1.316,0.793-2.316,2.224-2.462c1.793-0.184,6.364,2.49,6.46,3.698C177.734,21.444,175.817,22.699,173.403,22.743z"/>
<path fill-rule="evenodd" clip-rule="evenodd" fill="#CDBDAD" d="M182.243,22.742c4.063,0.124,5.666,1.365,5.216,4.018
	c-0.207,1.221-0.906,2.091-2.009,2.512c-1.105,0.421-1.441-0.501-1.911-1.279c-0.715-1.183-1.96-1.451-3.252-1.488
	c-1.876-0.052-1.619-1.07-1.03-2.246C180.267,23.782,180.973,22.707,182.243,22.742z"/>
<path fill-rule="evenodd" clip-rule="evenodd" fill="#A28E7B" d="M168.75,22.751c-0.502,0.498-1.003,0.997-1.505,1.495
	c-1.433-1.754-2.155-3.774-2.252-6.028c0.249-0.239,0.498-0.479,0.747-0.717C167.115,19.037,168.442,20.602,168.75,22.751z"/>
<path fill-rule="evenodd" clip-rule="evenodd" fill="#AE9984" d="M164.992,18.218c1.552,1.71,2.429,3.673,2.252,6.028
	c-1.166,0.707-2.466,1.261-3.472,2.148c-2.647,2.339-5.6,3.264-9.164,3.276c-4.603,0.017-5.006-0.21-3.854-4.676
	c0.15-0.084,0.301-0.167,0.452-0.252c0.351-0.009,0.687,0.059,1.009,0.193c1.671,0.544,3.365,0.774,4.999-0.031
	c0.821-0.404,1.326-1.159,0.924-2.128c-0.385-0.926-1.167-0.665-1.879-0.456c-1.102,0.323-2.234,1.356-3.253-0.162
	c-1.343-3.343-3.816-6.337-2.697-10.392c0.311-1.124,0.271-2.253,1.597-2.552c4.536-1.022,9.035-2.474,13.787-1.434
	c0.264,0.249,0.527,0.497,0.791,0.746c1.014,1.532-0.855,2.525-0.727,3.893c-0.062,0.557-0.292,1.011-0.79,1.304
	c-1.375,0.911-2.264,2.01-1.46,3.766c-0.016,0.458-0.256,1.104,0.041,1.335c0.615,0.48,0.971-0.324,1.451-0.558L164.992,18.218z"/>
<path fill-rule="evenodd" clip-rule="evenodd" fill="#BEAA93" d="M164.999,18.268c-0.246,0.933,0.635,2.467-1.069,2.591
	c-0.691,0.05-1.784-0.579-2.103-1.201c-0.8-1.567,0.957-1.545,1.68-2.167C164.004,17.749,164.501,18.008,164.999,18.268z"/>
<path fill-rule="evenodd" clip-rule="evenodd" fill="#8B7867" d="M164.967,13.725c0.012-0.489,0.024-0.979,0.037-1.469
	c0.473-0.447,0.959-0.443,1.458-0.042c0.263,0.262,0.526,0.525,0.789,0.788C166.594,13.572,166.471,15.827,164.967,13.725z"/>
<path fill-rule="evenodd" clip-rule="evenodd" fill="#C0AC94" d="M131.251,42.999c3.739,6.041-1.644,14.564-9.337,15.044
	c-4.021,0.252-7.821-0.916-12.104-1.635c1.528,3.563,4.963,3.336,7.174,4.945c1.426,1.037,4.036,1.122,3.645,3.629
	c-0.347,2.23-2.138,3.563-4.237,4.321c-3.771,1.364-7.621,2.321-11.678,2.201c-4.14-0.121-7.813-1.025-10.308-4.844
	c-0.997-1.526-2.495-2.851-4.024-3.882c-4.741-3.195-5.282-7.882-1.127-13.023c0.938,0.666,1.169,1.92,2.094,2.575
	c1.205,0.854,2.6,1.208,3.727,0.084c0.867-0.864,0.579-2.126,0.026-3.139c-0.867-1.59-2.021-0.911-3.153-0.282
	c-0.832,0.462-1.576,1.294-2.694,0.76c0.762-2.77,2.485-4.954,4.812-6.413c2.328-1.459,3.425-3.388,3.961-5.957
	c1.28-6.135,1.583-6.33,7.74-6.41c0.988-0.579,2.152-0.299,3.187-0.654c0.372-0.024,0.739,0.007,1.103,0.082
	c1.801,0.541,3.667,0.152,5.493,0.368c0.938,0.113,1.807,0.453,2.671,0.802c2.062,0.938,4.414,0.564,6.502,1.438
	c0.957,0.401,1.928,0.816,2.075,1.906c0.177,1.307-0.833,1.988-1.832,2.536c-1.962,1.077-4.181,1.274-6.381,1.821
	c4.265,0.718,9.007-0.542,12.395,3.252C131.073,42.682,131.162,42.84,131.251,42.999z"/>
<path fill-rule="evenodd" clip-rule="evenodd" fill="#C0AC94" d="M110.25,27.998c-1.588,0.241-3.17,0.537-4.766,0.708
	c-1.162,0.125-2.385-0.163-2.992-1.16c-0.59-0.971,0.418-1.807,0.807-2.691c0.838-1.903,2.818-2.739,3.947-4.357h0.001
	c3.902-2.114,8.27-1.948,12.375-1.736c7.206,0.37,13.671-1.252,19.974-4.608c4.088-2.177,4.796-1.713,7.059,2.201
	c0.313,0.542,0.667,1.039,1.052,1.528c3.257,4.146,1.974,7.466-3.367,8.089c-5.927,0.692-11.743,1.782-17.427,3.586
	c-1.04,0.213-2.083,0.219-3.126,0.038c-3.893-1.076-7.822-1.729-11.869-0.975C111.277,28.641,110.718,28.442,110.25,27.998z"/>
<path fill-rule="evenodd" clip-rule="evenodd" fill="#C0AC94" d="M79.526,76.002c-6.29-0.023-8.207-2.68-5.896-7.552
	c1.484-3.128,2.829-7.008,7.37-6.934c3.246,0.053,7.945,5.06,8.763,8.853c0.415,1.926-0.82,2.797-2.192,3.418
	C84.729,75.075,81.733,75.872,79.526,76.002z"/>
<path fill-rule="evenodd" clip-rule="evenodd" fill="#C0AC94" d="M96.725,86.46c-0.469,0.029-0.938,0.06-1.406,0.089
	c-6.407,0.309-12.637-0.838-18.836-2.276c-1.159-0.269-2.353-0.64-2.434-1.917c-0.063-0.978,1.125-1.367,1.917-1.514
	c7.186-1.326,13.967-4.794,21.534-4.099c0.765-0.128,0.965,0.223,0.772,0.907c-2.946,1.766-6.741,1.148-9.518,3.398
	c-0.175,0.713-0.576,1.228-1.248,1.517c-1.128,0.27-2.181-0.017-2.515-0.136c4.047,0.528,8.794,1.309,13.477-0.612
	c0.905-0.25,1.151-1.087,1.56-1.782c0.379-0.645,0.814-1.227,1.557-1.493c1.041-0.253,1.981,0.063,2.854,0.571
	c2.158,1.26,2.313,2.873,0.33,4.37c-1.912,1.444-4.178,2.013-6.534,2.238C97.73,85.968,97.228,86.214,96.725,86.46z"/>
<path fill-rule="evenodd" clip-rule="evenodd" fill="#9D8978" d="M126.739,61.014c-1.282-0.197-2.752,0.477-3.836-0.785
	c0.122-0.229,0.231-0.59,0.323-0.584c8.42,0.433,9.386-6.463,11.499-11.972c1.042-2.714,0.267-5.037-3.474-4.674h0
	c-1.147-0.943-3.993-0.636-2.564-3.48c3.011-0.734,5.332,1.271,7.515,2.54c2.041,1.188,1.024,3.952,0.708,6.224
	c-0.05-0.033,0.088-0.147,0.129-0.497c0.837-7.121,1.847-7.741,10.107-6.207c1.717,1.419,0.257,1.837-0.779,2.208
	c-5.417,1.942-5.424,1.922-7.472,7.58c1.164-0.622,2.092-1.782,3.526-1.077c1.047,3.066-1.797,4.138-3.073,6.016
	c-1.771,1.652-3.868,2.716-6.171,3.402c-1.659,0.34-3.305,0.749-4.948,1.166C127.739,60.979,127.239,60.998,126.739,61.014z"/>
<path fill-rule="evenodd" clip-rule="evenodd" fill="#978474" d="M126.739,61.014c0.252-0.256,0.505-0.51,0.757-0.766
	c2.005,0.298,3.763-0.684,5.632-1.092c0.788,0.04,1.504,0.152,1.267,1.237c-0.56,4.335-2.844,7.647-6.14,10.36
	c-2.187,1.382-4.136,3.088-6.375,4.424c-3.578,2.133-7.387,2.563-11.413,2.371c-1.599-0.075-3.202,0.273-4.752,0.75
	c-3.101,0.527-5.767-0.498-8.209-2.313c2.203-1.373,4.593-0.747,6.891-0.523c8.599,0.838,16.144-1.632,22.791-7.03
	c2.104-1.708,3.441-3.896,3.751-6.712C129.571,61.245,127.915,62.432,126.739,61.014z"/>
<path fill-rule="evenodd" clip-rule="evenodd" fill="#AD9984" d="M97.505,75.986c2.832,0.081,5.324,2.027,8.266,1.501
	c0.164,0.003,0.328,0.006,0.492,0.009c1.096,0.149,2.356-0.379,3.21,0.774c3.166,4.009,2.948,5.098-1.974,6.47
	c-2.976,0.83-5.916,3.273-9.267,0.982c1.521-0.777,3.036-1.563,4.563-2.326c0.974-0.488,2.474-0.673,2.531-1.885
	c0.073-1.525-1.685-1.527-2.675-2.137c-0.397-0.243-0.943-0.244-1.421-0.354c-1.69,0.862-2.381-0.24-2.984-1.517
	c-0.249-0.253-0.498-0.506-0.746-0.761C97.502,76.49,97.504,76.238,97.505,75.986z"/>
<path fill-rule="evenodd" clip-rule="evenodd" fill="#AA9682" d="M110.25,27.998c0.499-0.007,0.998-0.013,1.498-0.02
	c0.268,0.23,0.455,0.512,0.549,0.855c0.038,0.349,0.002,0.691-0.102,1.026c-0.562,1.159-1.625,1.13-2.678,1.13
	c-1.25-0.005-2.5-0.01-3.749-0.016C107.079,29.706,109.415,29.981,110.25,27.998z"/>
<path fill-rule="evenodd" clip-rule="evenodd" fill="#AE9984" d="M126.716,28.728c5.182-2.264,10.719-3.014,16.254-3.682
	c1.516-0.183,3.081-0.329,4.297-1.117c1.774-1.149,2.716-2.864,0.433-4.444c-1.497-1.036-2.605-1.886-2.639-4.034
	c-0.026-1.635-1.639-2.006-3.172-1.36c-1.953,0.822-4.092,1.392-5.796,2.58c-3.809,2.654-7.984,3.188-12.44,3.107
	c-5.476-0.1-10.97-0.299-16.403,0.719c3.341-3.511,7.99-2.747,11.918-2.781c7.291-0.062,14.037-1.055,20.478-4.671
	c3.236-1.817,6.751-1.318,9.612,1.451l-0.002-0.006c1.154,1.306,1.701,2.977,2.595,4.442c1.313,2.153,0.563,4.279-1.104,6.072
	c0,0,0.007-0.009,0.008-0.009c-2.804,1.527-5.728,2.579-8.995,2.261c-3.687,2.703-8.167,2.292-12.333,3.069
	C128.345,30.526,127.283,29.838,126.716,28.728z"/>
<path fill-rule="evenodd" clip-rule="evenodd" fill="#7C6A5C" d="M160.5,46c0.188-2.503,0.377-5.005,0.566-7.508
	c1.492,7.294,5.897,11.023,12.912,12.047c-2.033,3.918-1.772,4.366,2.53,5.236c1.423,0.288,2.924,0.069,4.28,0.709
	c4.585,0.888,9.214,2.846,13.623-0.572c0.356-0.276,0.728-0.673,1.091,0.115c1.723,3.734,4.494,1.852,7.017,1.26
	c0.597-0.004,1.128,0.125,1.444,0.699c-1.31,1.472-4.5,1.498-3.261,4.915c1.271,3.505,5.439,8.394,7.794,8.448
	c0.338,0.007,0.848-0.08,0.992-0.307c0.429-0.672-0.036-1.195-0.583-1.509c-1.692-0.97-2.458-2.538-3.029-4.358
	c5.808,2.863,9.49,10.106,18.011,7.49c-2.077,2.688-6.91,0.993-6.361,5.546c-0.921-1.87-2.138-2.931-4.499-3.074
	c-6.794-0.413-11.003-4.119-13.271-10.601c-2.03-5.797-3.765-6.294-9.835-5.114c-6.478,1.259-12.793,0.167-18.919-2.134
	c-0.926-0.348-1.791-0.896-2.846-0.595c-0.12-0.125-0.241-0.249-0.362-0.374c-0.005-0.123-0.053-0.268-0.008-0.37
	c1.751-4.002,1.752-4.001-2.489-5.388C163.381,49.377,160.41,49.291,160.5,46z"/>
<path fill-rule="evenodd" clip-rule="evenodd" fill="#7B695B" d="M105.771,77.487c0.998-1.079,2.329-0.801,3.513-0.7
	c6.219,0.528,11.783-1.037,16.663-4.957c0.681-0.547,1.358-1.104,2.308-1.076c-0.761,1.728-2.395,2.854-3.871,3.36
	c-5.267,1.808-6.172,7.032-9.033,10.706c-0.76,0.975-0.226,1.605,0.414,2.245c9.488,9.489,9.583,21.017,7.13,33.069
	c-0.274,1.343-0.941,2.609,0.05,3.902c-2.48,0.521-4.96,1.229-7.442,0.008c-2.416,0.251-3.217-0.65-2.19-2.974
	c0.853-1.931,1.547-3.935,2.461-5.834c0.598-1.241,0.975-2.984,3.194-1.516c1.184,0.784,1.43-0.763,1.884-1.607
	c1.461-2.726-0.119-5.377-0.166-8.057c-0.065-3.713-0.471-7.529-1.999-10.91c-1.846-4.088-5.382-6.351-10.216-6.901
	c2.743-1.438,5.656-2.218,7.021-5.004c0.405-0.827,1.761-1.532,0.95-2.538c-0.398-0.494-1.597-0.386-2.441-0.466
	c-0.741-0.069-1.494-0.02-2.241-0.023c-1.932-0.812-4.084,0.193-6.003-0.729L105.771,77.487z"/>
<path fill-rule="evenodd" clip-rule="evenodd" fill="#AE9984" d="M115.503,124.045c2.48-0.451,4.96-1.366,7.442-0.008
	c0.813,0.524,1.622,1.051,1.491,2.212c-4.554,0.286-6.468,1.522-7.347,4.731c-0.235,0.86-0.459,1.76,0.269,2.453
	c0.719,0.686,1.629,0.494,2.47,0.202c1.708-0.592,3.072-1.595,3.884-3.279c0.473-0.981,0.519-2.224,1.647-2.826
	c0.479,0.538,0.958,1.077,1.437,1.616c-1.362,7.344-8.24,11.507-15.232,9.496c-3.603-1.035-7.403-0.231-11.111-0.379
	c-3.292-0.133-4.505-1.372-3.523-4.375c0.902-2.755,1.753-5.803,5.075-6.885c1.31,2.106-0.556,3.406-1.276,4.992
	c-0.347,0.766-1.145,1.561-0.441,2.36c0.619,0.705,1.656,0.525,2.463,0.229c3.681-1.352,6.858-3.405,8.86-6.903
	c0.547-0.956,0.747-2.107,1.606-2.896C114.043,124.738,114.914,124.824,115.503,124.045z"/>
<path fill-rule="evenodd" clip-rule="evenodd" fill="#7A695B" d="M134.396,60.394c-0.374-0.616-0.948-0.868-1.643-0.899
	c-0.191-0.166-0.254-0.33-0.187-0.491c0.066-0.161,0.132-0.241,0.197-0.241c2.286-0.424,4.089-1.795,5.965-3.026
	c0.329-0.3,0.66-0.303,0.997-0.014c0.912,2.169,3.012,1.952,4.748,2.172c5.989,0.76,11.991,3.4,18.008-0.022
	c0.945-0.537,2.049-0.846,3.032-1.371c0.792-0.424,1.59-0.712,2.422-0.092c0,0,0.221,0.283,0.222,0.285
	c-6.065,7.023-14.16,6.171-22.091,5.488c-3.016-0.26-6.242-0.219-8.893-2.24C136.157,59.167,135.324,60.237,134.396,60.394z"/>
<path fill-rule="evenodd" clip-rule="evenodd" fill="#C0AC94" d="M125.359,127.53c0.185,4.187-2.257,6.381-5.893,7.497
	c-2.976,0.913-4.57-0.795-3.737-3.827c1.384-5.04,4.724-6.938,8.708-4.951C124.744,126.676,125.051,127.104,125.359,127.53z"/>
<path fill-rule="evenodd" clip-rule="evenodd" fill="#463B35" d="M161.813,113.127c5.043,3.357,6.597,7.995,7.384,13.142
	c0.465,3.042-0.428,4.847-3.388,5.567c-4.756,1.157-9.602,1.504-14.455,1.076c-4.681-0.412-6.713-4.506-9.225-7.582
	c-2.485-3.044-4.688-6.361-6.729-9.801c-2.409-4.061-2.317-8.055-1.315-12.209c1.046-4.341,1.976-8.73,3.744-12.877
	c2.31-5.416,8.121-6.665,12.419-2.54c2.91,2.793,4.765,6.318,6.409,9.948c0.304,0.671,0.346,1.48,1.55,1.697
	c1.304-4.086,4.363-7.534,4.499-12.141c0.106-3.624,2.339-5.609,5.386-6.945c7.789-3.413,18.331,1.26,19.949,8.898
	c0.357,1.689,0.243,3.475,0.539,5.182c0.875,5.031,3.091,9.311,6.748,13c5.556,5.607,6.349,12.765,5.586,20.174
	c-0.248,2.401-2.029,4.084-4.412,4.464c-7.358,1.169-14.552-0.427-21.679-1.899c-3.539-0.731-4.991-4.123-4.292-8.258
	C171.423,116.75,168.126,113.033,161.813,113.127z"/>
<path fill-rule="evenodd" clip-rule="evenodd" fill="#9C8A79" d="M234.707,109.783c-0.371-0.014-0.763,0.046-1.11-0.052
	c-2.81-0.786-6.102-2.029-6.07-5.045c0.034-3.372,3.894-2.749,6.196-3.07c5.149-0.721,8.194,2.151,9.271,8.122
	c-1.484,2.198-3.71,0.702-5.552,1.114C236.5,110.573,235.463,110.537,234.707,109.783z"/>
<path fill-rule="evenodd" clip-rule="evenodd" fill="#988575" d="M246.03,110.467c-0.959-2.842,0.513-4.426,2.887-5.508
	c1.276-0.58,2.739-0.901,3.891-0.094c1.376,0.963-0.192,2.232-0.077,3.382C251.1,110.804,249.094,112.233,246.03,110.467z"/>
<path fill-rule="evenodd" clip-rule="evenodd" fill="#806E5E" d="M246.03,110.467c2.64,0.486,4.838-0.36,6.7-2.22
	c0.243,0,0.485-0.001,0.727-0.005c-2.261,3.662-5.528,4.775-11.338,3.526c-1.714-0.369-3.393-0.485-5.108-0.532
	c-0.194-0.16-0.261-0.322-0.199-0.486c0.063-0.166,0.125-0.248,0.189-0.248c2.015-0.12,4.11,0.401,5.992-0.764
	C243.566,111.813,244.705,111.529,246.03,110.467z"/>
<path fill-rule="evenodd" clip-rule="evenodd" fill="#8E7C6B" d="M237.001,110.502c0.001,0.245,0.004,0.49,0.01,0.734
	c-1.05-0.053-2.195,0.29-3.014-0.726c0.236-0.242,0.474-0.485,0.71-0.729C235.555,109.757,236.422,109.67,237.001,110.502z"/>
<path fill-rule="evenodd" clip-rule="evenodd" fill="#C0AC94" d="M113.217,124.786c-0.329,5.449-7.333,11.597-12.686,11.233
	c-2.46-0.166-2.701-1.307-1.669-3.18c1.067-1.935,2.843-3.487,3.142-5.836C105.331,124.188,109.033,123.271,113.217,124.786z"/>
<path fill-rule="evenodd" clip-rule="evenodd" fill="#AB9781" d="M83.287,94.737c-0.001-1.858,0.472-3.484,2.206-4.491
	c2.603,0.418,5.582-0.42,7.508,2.253c-0.257,0.004-0.513,0.008-0.77,0.011c-2.113,1.469-4.466,0.732-6.739,0.738
	C84.379,93.184,84.017,94.233,83.287,94.737z"/>
<path fill-rule="evenodd" clip-rule="evenodd" fill="#978474" d="M105.758,77.486c1.997,0.279,4.137-0.625,6.003,0.729
	c-0.742,0.844-1.529-0.168-2.287,0.054C108.216,78.1,106.798,78.688,105.758,77.486z"/>
<path fill-rule="evenodd" clip-rule="evenodd" fill="#8A7769" d="M98.274,126.271c-0.264-0.267-0.529-0.534-0.793-0.803
	c0.85-0.986,1.921-0.667,3.079-0.677C100.145,126.103,99.134,126.061,98.274,126.271z"/>
<path fill-rule="evenodd" clip-rule="evenodd" fill="#AE9984" d="M218.771,114.088c-0.708-3.185-0.521-6.398-0.518-9.604
	c0.001-1.011-0.019-2.19,1.069-2.572c1.355-0.477,2.228,0.68,2.521,1.668c1.774,5.967,6.012,9.748,10.92,13.122
	c2.652,1.823,2.26,4.809,1.699,7.511c-0.212,1.019-1.14,2.247-2.466,1.13c-2.166-1.826-4.455-1.25-6.68-0.489
	c-2.402,0.821-3.851-0.005-4.72-2.178C219.495,119.92,218.766,117.07,218.771,114.088z"/>
<path fill-rule="evenodd" clip-rule="evenodd" fill="#AD9984" d="M255.749,117.367c0.034,2.5,0.245,5.018-3.711,3.974
	c-1.155-0.305-1.779,1.125-2.386,2.067c-1.356,2.105-3.426,3.179-5.718,2.406c-2.29-0.772-3.183-2.87-3.214-5.375
	c-0.069-5.446,0.766-6.363,6.062-6.488c1.35-0.031,2.699-0.396,4.034-0.677C255.27,112.338,255.766,112.739,255.749,117.367z"/>
<path fill-rule="evenodd" clip-rule="evenodd" fill="#CEBDAE" d="M91.458,145.068c-1.037,1.465-2.627,1.088-4.063,1.219
	c-7.058,0.641-14.027,0.223-21.528-1.864c6.629-3.388,12.951-5.539,19.957-5.46c1.729,0.019,1.778,1.463,2.578,2.277
	C88.829,142.988,90.071,144.086,91.458,145.068z"/>
<path fill-rule="evenodd" clip-rule="evenodd" fill="#C0AC94" d="M85.492,93.248c2.045-2.084,4.478-0.624,6.739-0.738
	c1.093,3.166,2.217,6.324,2.277,9.732c1.678,3.904,0.805,7.84,0.473,11.779c0.606-5.151,0.575-10.334,0.274-15.529
	c-0.007-1.248-0.014-2.496-0.02-3.744c-1.3-2.559,0.934-2.436,2.271-2.992c1.966-0.293,3.943-0.52,5.894-0.893
	c4.294-0.82,6.537,0.598,8.266,4.688c3.765,8.909,0.936,16.159-5.373,22.59c-1.336,1.362-3.076,2.071-5.056,2.115
	c-3.334,0.074-6.571,0.946-9.024,3.112c-3.843,3.39-8.276,3.309-12.715,2.645c-4-0.599-7.921-0.68-11.889-0.152
	c-0.705,0.094-1.528,0.651-1.936-0.301c-0.35-0.818,0.443-1.384,0.897-1.914c2.338-2.725,5.572-4.236,8.698-5.667
	c4.1-1.876,6.215-4.274,5.859-9.16C80.721,103.268,83.09,98.181,85.492,93.248z"/>
<path fill-rule="evenodd" clip-rule="evenodd" fill="#BFAB94" d="M69.015,108.208c0.269-4.036-1.208-8.16-0.794-12.429
	c0.303-3.133,1.95-4.941,4.561-4.63c5.538,0.662,6.642,1.706,6.154,5.689c-0.362,2.953-0.715,5.91-0.943,8.876
	c-0.318,4.133-3.026,6.416-6.301,8.17c-1.554,0.832-2.665,0.209-2.675-1.729C69.009,110.908,69.015,109.661,69.015,108.208z"/>
<path fill-rule="evenodd" clip-rule="evenodd" fill="#B39E88" d="M95.256,98.492c1.439,4.09,0.957,14.7-1.05,18.056
	c0.544-4.767,0.75-9.535,0.302-14.306C95.694,101.18,95.09,99.759,95.256,98.492z"/>
<path fill-rule="evenodd" clip-rule="evenodd" fill="#877363" d="M80.997,90.252c1.66,1.42-0.143,3.839,1.515,5.262
	c-1.721,2.502-0.977,5.666-2.228,8.295c-0.89-0.857,0.07-2.188-0.779-3.055C79.997,97.253,81.62,93.911,80.997,90.252z"/>
<path fill-rule="evenodd" clip-rule="evenodd" fill="#7E6B5C" d="M79.505,100.754c1.045,0.818,0.63,2.008,0.779,3.054
	c-0.161,1.188,0.343,2.467-0.779,4.063C79.505,105.164,79.505,102.959,79.505,100.754z"/>
<path fill-rule="evenodd" clip-rule="evenodd" fill="#B39E88" d="M97.507,91.756c-0.923,0.871-2.695,1.099-2.271,2.992
	C93.47,91.836,95.401,91.729,97.507,91.756z"/>
<path fill-rule="evenodd" clip-rule="evenodd" fill="#CEBDAE" d="M66.335,140.014c-1.921,4.124-5.48,4.078-8.699,4.138
	c-2.24,0.041-6.064,1.388-6.381-1.374c-0.255-2.227,3.846-1.553,5.973-2.206C60.05,139.705,63.014,139.365,66.335,140.014z"/>
<path fill-rule="evenodd" clip-rule="evenodd" fill="#CEBDAF" d="M222.88,66.253c-5.299,0.044-8.646-3.429-10.425-8.249
	c-0.637-1.725,0.331-2.873,2.264-2.989c2.801-0.169,4.68,1.435,6.3,3.391c1.188,1.433,2.181,3.024,3.297,4.519
	c0.579,0.774,1.655,1.383,1.141,2.538C224.931,66.646,223.718,66.102,222.88,66.253z"/>
<path fill-rule="evenodd" clip-rule="evenodd" fill="#7C6A5C" d="M180.788,56.484c-1.724-0.106-3.49-0.01-5.161-0.362
	c-3.785-0.799-4.169-2.274-1.648-5.583c3.628,1.36,7.359,0.513,11.08,0.496c-4.189-1.346-8.777-1.281-12.645-3.922
	c4.996,0.565,9.982,0.177,14.936,0.46c5.4,0.309,9.37-3.537,14.716-4.84c-0.8,3.16-3.758,3.628-5.068,5.621
	c4.01,0.79,8.323-2,9.936-6.203c0.927-2.416,0.851-5.135,2.304-7.377c1.233,8.018-2.302,13.075-9.75,15.703
	c-1.044,0.098-2.19-0.229-3.03,0.724c-5.206,3.212-10.724,3.242-16.404,1.607c-1.456-0.207-2.913-0.404-4.366-0.623
	c-1.016-0.153-2.097-0.314-2.316,1.06c-0.207,1.299,0.671,1.691,1.803,1.751C177.147,55.1,179.053,55.477,180.788,56.484z"/>
<path fill-rule="evenodd" clip-rule="evenodd" fill="#AC9783" d="M180.053,52.809c5.55,0.309,10.966-0.763,16.404-1.607
	c-0.771,2.027-4.983,4.733-7.778,4.326C185.719,55.096,182.497,55.053,180.053,52.809z"/>
<path fill-rule="evenodd" clip-rule="evenodd" fill="#CEBEAE" d="M229.148,76.487c1.895-0.907,3.644-1.745,5.504-2.635
	C233.341,77.554,232.532,77.953,229.148,76.487z"/>
<path fill-rule="evenodd" clip-rule="evenodd" fill="#9E8A79" d="M150.746,25.004c1.895-3.844-0.733-7.046-1.491-10.514
	c0.219-0.293,0.67-0.636,0.62-0.873c-1.103-5.235,2.576-5.479,6.087-5.844c3.24-0.338,6.491-1.9,9.731,0.009
	c-3.729-0.168-7.369,0.505-10.972,1.308c-4.144,0.923-5.528,4.72-2.935,8.231c1.233,1.668,2.169,3.289,1.945,5.41
	c-0.22,1.266-0.493,2.481-2.221,2.279C151.256,25.007,151.001,25.006,150.746,25.004z"/>
<path fill-rule="evenodd" clip-rule="evenodd" fill="#9E8A79" d="M166.461,12.213c-0.486,0.014-0.972,0.028-1.458,0.042
	c0.493-1.243,0.986-2.485,1.479-3.728c0.254-0.006,0.508-0.013,0.762-0.021C166.984,9.744,166.723,10.979,166.461,12.213z"/>
<path fill-rule="evenodd" clip-rule="evenodd" fill="#AE9984" d="M160.5,46c1.116,2.139,3.401,2.635,5.252,3.74
	c2.391,2.814,2.112,5.42-1.105,7.257c-3.358,1.917-7.019,2.969-10.982,2.607c-2.225-0.202-4.37-0.809-6.564-1.172
	c-4.524-0.748-5.103-1.69-4.153-6.158c0.103-0.483,0.222-0.968,0.188-1.452c-0.162-0.23-0.387-0.354-0.681-0.352
	c-2.324,0.161-3.005,3.017-5.676,3.269c1.264-3.015,2.365-5.921,3.045-8.964c0.323-1.445,1.507-1.744,2.897-1.802
	c1.692-0.07,3.515,0.599,5.054-0.672c0.214-0.612,0.743-0.941,1.161-1.339c-0.624-1.156-2.084-1.952-1.512-3.583
	c0.108-0.126,0.217-0.252,0.326-0.377c2.542,1.508,5.403,2.062,8.151,1.38c3.185-0.789,3.203,0.757,3.131,3.032
	C158.98,43.06,158.462,44.975,160.5,46z"/>
<path fill-rule="evenodd" clip-rule="evenodd" fill="#AA9682" d="M141.761,28.745c1.499,0.217,3.169-0.57,4.479,0.759
	c-0.215,1.248-0.639,2.496,0.005,3.744c-0.27,1.561,0.817,2.577,1.504,3.754l0,0.003c-3.752,2.501-7.68,3.623-12.015,1.546
	c0.187-2.666,2.376-2.256,4.05-2.602c1.255-0.26,3.012,0.183,3.011-1.883c-0.001-2.123-1.556-2.542-3.308-2.678
	c-4.768-0.372-5.437,0.699-4.13,6.712c0.088,1.304-0.724,1.738-1.823,1.904c-3.282-0.178-3.176-2.981-3.96-5.1
	c-0.08-0.429-0.108-0.862-0.1-1.298c-0.083-2.191,1.093-3.431,3.109-3.89C135.6,29.029,138.542,27.537,141.761,28.745z"/>
<path fill-rule="evenodd" clip-rule="evenodd" fill="#AE9984" d="M187.555,45.25c-1.313-0.087-2.924,0.345-3.531-1.311
	c-0.598-1.635,0.808-2.504,1.83-3.305c2.271-1.779,4.767-3.1,7.804-2.885c2.537,0.181,3.023,1.541,1.768,3.483
	C193.613,44.033,190.918,45.355,187.555,45.25z"/>
<path fill-rule="evenodd" clip-rule="evenodd" fill="#847163" d="M150.007,33.243c-0.553,0.333-0.726,0.858-0.74,1.462
	c-1.512-0.483-1.568-2.419-2.986-2.995c-0.469-0.475-0.46-0.955-0.016-1.438C147.968,30.688,148.636,32.408,150.007,33.243z"/>
<path fill-rule="evenodd" clip-rule="evenodd" fill="#AA9581" d="M146.265,30.271c0.005,0.479,0.01,0.959,0.016,1.439
	c-0.011,0.512-0.023,1.025-0.035,1.538c-1.079-1.247-1.078-2.495-0.005-3.744C146.248,29.76,146.257,30.016,146.265,30.271z"/>
<path fill-rule="evenodd" clip-rule="evenodd" fill="#AA9581" d="M141.761,28.745c-3.252-0.164-6.251,0.72-9.261,1.896
	c-1.774,0.692-2.147,1.759-2.002,3.363c-4.643-3.9-10.548-1.93-15.728-3.354c-1.057-0.291-2.222-0.188-3.018-1.139
	c0-0.254-0.001-0.508-0.001-0.762c4.004-1.588,8.01-0.511,12.016-0.009c0.983-0.004,1.967-0.008,2.95-0.011
	c4.464,1.545,8.574-0.887,12.877-1.154c0.725-0.045,1.443-0.208,2.165-0.318C141.76,27.752,141.76,28.248,141.761,28.745z"/>
<path fill-rule="evenodd" clip-rule="evenodd" fill="#BFAB94" d="M151.511,25.01c0.741-0.76,1.481-1.52,2.221-2.279
	c0.591-0.445,1.203-0.867,1.77-1.34c1.194-0.996,2.534-1.381,3.621-0.108c1.088,1.276,0.878,2.806-0.195,4.083
	C157.422,27.153,153.397,26.931,151.511,25.01z"/>
<path fill-rule="evenodd" clip-rule="evenodd" fill="#BEAA93" d="M159.981,9.235c1.377,0.072,2.579-0.164,2.97,1.021
	c0.286,0.866-0.362,1.656-0.951,2.316c-0.857,0.96-1.944,1.659-3.195,1.799c-1.878,0.209-3.738-0.439-4.242-2.292
	c-0.653-2.404,1.699-1.78,2.918-2.196C158.413,9.565,159.392,9.384,159.981,9.235z"/>
<path fill-rule="evenodd" clip-rule="evenodd" fill="#CEBEAF" d="M119.709,55.004c-4.266,0.274-8.482-1.286-12.623-3.004
	c-2.567-1.064-4.81-5.942-4.087-8.516c0.371-1.324,1.062-2.121,2.74-1.651c5.304,1.484,10.792,1.582,16.241,1.953
	c0.731,0.05,1.462,0.283,2.168,0.511c2.648,0.854,5.523,1.705,5.457,5.177c-0.06,3.155-3.078,5.374-6.922,5.525
	C121.812,55.033,120.937,55.004,119.709,55.004z"/>
<path fill-rule="evenodd" clip-rule="evenodd" fill="#CEBDAF" d="M107.618,70.033c-2.109-0.092-3.586,0.041-5.059-0.466
	c-3.003-1.036-3.759-3.653-1.633-5.979c3.393-3.71,11.508-3.471,14.92,0.35c1.56,1.746,0.848,2.936-0.716,3.939
	C112.666,69.46,110.015,70.478,107.618,70.033z"/>
<path fill-rule="evenodd" clip-rule="evenodd" fill="#AE9984" d="M128.242,40.016c0.56,1.44,2.098,1.896,3.009,2.983
	c-4.116-2.305-8.58-2.534-13.146-2.265c-0.79,0.046-2.063,0.326-2.145-0.829c-0.088-1.266,1.055-2.003,2.217-2.046
	c2.259-0.084,4.439-0.385,6.499-1.343c0.664-0.309,1.574-0.563,1.526-1.419c-0.05-0.889-1.028-0.835-1.683-1.141
	c-2.157-1.005-4.727-0.004-6.764-1.465c5.402-2.746,10.184-1.338,12.232,3.598c0.131,0.399,0.156,0.809,0.079,1.221
	c-0.855,1.747-2.692,1.339-4.102,1.864c-1.219,0.125-2.446,0.046-3.566,0.089C124.25,39.696,126.445,38.333,128.242,40.016z"/>
<path fill-rule="evenodd" clip-rule="evenodd" fill="#CDBDAD" d="M89.256,49.754c0.579-0.459,1.22-0.86,1.724-1.391
	c1.087-1.146,2.295-2,3.929-1.47c1.427,0.464,1.574,1.959,1.666,3.074c0.124,1.514,1.21,3.82-1.495,4.18
	c-2.417,0.322-5.185,0.663-5.785-2.904c-0.081-0.484-0.029-0.99-0.04-1.486C89.256,49.756,89.256,49.754,89.256,49.754z"/>
<path fill-rule="evenodd" clip-rule="evenodd" fill="#877565" d="M129.725,37.028c-1.215-4.02-4.126-4.998-7.939-4.542
	c-1.324,0.159-2.685,0.012-4.029,0.003c-0.754-0.246-1.507-0.491-2.261-0.736c-1.898-1.036-4.092,0.258-5.994-0.758l0.015-0.006
	c0.746-0.494,1.491-0.987,2.236-1.48c4.432,0.13,8.814,0.967,13.276,0.781c2.605-0.108,4.251,1.579,5.47,3.713
	c-0.01,0.257-0.02,0.514-0.029,0.771C130.053,35.47,130.65,36.5,129.725,37.028z"/>
<path fill-rule="evenodd" clip-rule="evenodd" fill="#AE9984" d="M109.501,30.996c1.993,0.295,4.136-0.601,5.994,0.758
	C113.5,31.485,111.345,32.472,109.501,30.996z"/>
<path fill-rule="evenodd" clip-rule="evenodd" fill="#AE9984" d="M123.767,28.739c-4.005,0.003-8.011,0.006-12.016,0.009
	c-0.001-0.256-0.002-0.513-0.003-0.77C115.872,26.366,119.835,27.303,123.767,28.739z"/>
<path fill-rule="evenodd" clip-rule="evenodd" fill="#CDBCAC" d="M99.739,82.746c-5.524,2.067-10.98,1.762-17.39-0.764
	c2.471,0,3.934,0,5.396,0c3.005-1.603,6.243-2.031,9.574-1.736C98.71,80.369,100.515,80.392,99.739,82.746z"/>
<path fill-rule="evenodd" clip-rule="evenodd" fill="#CDBDAC" d="M98.246,77.504c0.995,0.506,1.989,1.011,2.984,1.517
	c-0.009,0.609-0.17,1.145-0.727,1.487c-4.001,0.226-8.002,1.186-12.003-0.008C90.544,78.533,93.853,77.516,98.246,77.504z"/>
<path fill-rule="evenodd" clip-rule="evenodd" fill="#C2B09D" d="M88.5,80.5c4,0.002,8.001,0.004,12.003,0.007
	c-0.017,0.827,0.072,1.69-0.764,2.239c-1.841-2.886-4.61-1.346-6.903-1.189c-1.678,0.114-3.376,0.43-5.09,0.426
	C87.998,81.488,88.249,80.994,88.5,80.5z"/>
<path fill-rule="evenodd" clip-rule="evenodd" fill="#7D6B5D" d="M129.725,37.028c0.06-0.814-0.07-1.69,0.745-2.253
	c1.259,1.323,0.084,4.273,3,4.488c3.066,0.407,6.048-0.642,9.109-0.501c2.792,0.129,5.403,0.601,7.428,2.74
	c-0.744,0.267-1.488,0.533-2.232,0.8c-0.871-0.006-1.742-0.027-2.613-0.018c-1.987,0.021-4.143-0.425-5.921,0.199
	c-2.438,0.856-0.629,3.58-1.474,5.279c-0.373,0.75-0.457,1.706-1.67,2.187c-0.472-2.539,2.069-6.048-0.674-7.284
	c-2.222-1.001-4.382-2.965-7.181-2.65c-2.709,0.001-5.419,0.001-8.574,0.001c2.127-1.825,4.254-1.477,6.286-1.547
	c0.86-0.603,1.847-0.202,2.762-0.354c0.59-0.098,1.564,0.064,0.999-1.108L129.725,37.028z"/>
<path fill-rule="evenodd" clip-rule="evenodd" fill="#837060" d="M142.455,50.471c0.038-0.213,0.063-0.426,0.076-0.642
	c2.199,0.673,0.967,2.286,0.55,3.164c-0.646,1.362-1.026,3.569-3.52,2.772c-0.277-0.011-0.555-0.02-0.833-0.03
	C139.864,53.905,141.855,52.681,142.455,50.471z"/>
<path fill-rule="evenodd" clip-rule="evenodd" fill="#8F7B6A" d="M132.763,58.762c-0.011,0.244-0.014,0.488-0.01,0.732
	c-1.682,0.741-3.282,2.049-5.256,0.754C129.252,59.753,131.008,59.258,132.763,58.762z"/>
<path fill-rule="evenodd" clip-rule="evenodd" fill="#9D8979" d="M139.562,55.766c2.16-1.395,4.095-2.901,2.97-5.938
	c0.254-0.58,0.545-1.226,1.248-1.237c0.852-0.014,0.92,0.649,0.783,1.31c-0.075,0.362-0.274,0.7-0.342,1.063
	c-1.093,5.892-1.048,5.739,4.883,7.055c4.524,1.002,8.876,0.745,13.164-0.77c3.949-1.395,4.815-3.43,3.486-7.51
	c6.418,1.803,6.418,1.803,2.182,6.668c-1.549,0.77-3.157,1.442-4.637,2.328c-5.959,3.569-12.059,1.149-18.118,0.517
	c-1.354-0.142-2.698-0.364-4.051-0.506C139.088,58.534,138.462,57.611,139.562,55.766z"/>
<path fill-rule="evenodd" clip-rule="evenodd" fill="#C0AC96" d="M116.09,137.489c0.07,0.753-0.202,1.308-0.935,1.326
	c-1.193,0.03-1.744-0.739-1.839-1.847c-0.054-0.625,0.034-1.4,0.818-1.347C115.214,135.695,115.771,136.55,116.09,137.489z"/>
<path fill-rule="evenodd" clip-rule="evenodd" fill="#53453E" d="M198.003,121.243c-0.001,8.928-2.369,10.745-10.847,9.061
	c-3.43-0.681-6.774-1.534-9.978-2.891c-3.249-1.376-3.631-3.237-1.601-6.13c1.522-2.171,3.413-4.854,5.562-5.219
	c4.347-0.739,7.927-2.437,11.654-4.61c2.186-1.274,3.965,1.081,4.783,3.427C198.343,117.078,197.816,119.332,198.003,121.243z"/>
<path fill-rule="evenodd" clip-rule="evenodd" fill="#54443E" d="M151.142,113.507c8.167,0.339,13.292,4.192,14.958,11.792
	c0.415,1.89,0.005,2.68-1.852,3.258c-3.145,0.979-6.415,0.833-9.596,1.162c-3.254,0.336-10.729-9.436-9.726-12.583
	C145.775,114.473,148.178,113.199,151.142,113.507z"/>
<path fill-rule="evenodd" clip-rule="evenodd" fill="#CEBEAF" d="M111.125,102.986c-0.756,5.397-2.661,10.283-7.347,13.498
	c-2.788,1.912-4.87,0.672-4.744-2.724c0.24-6.452,2.31-12.387,5.804-17.79c1.262-1.95,3.557-1.697,4.71,0.488
	C110.6,98.451,111.227,100.605,111.125,102.986z"/>
<path fill-rule="evenodd" clip-rule="evenodd" fill="#CEBEAE" d="M91.437,101.398c0.449,4.496-1.051,8.002-3.191,11.277
	c-1.49,2.281-2.986,2.106-4.017-0.373c-2.172-5.228-0.47-10.274,1.091-15.227c0.428-1.355,2.004-2.306,3.669-1.963
	c1.511,0.312,2.245,1.563,2.417,3.002C91.554,99.341,91.437,100.6,91.437,101.398z"/>
<path fill-rule="evenodd" clip-rule="evenodd" fill="#C0AC94" d="M153.836,56.507c-0.767,0-1.142,0.007-1.516-0.002
	c-2.403-0.054-5.802-0.169-6.272-2.222c-0.566-2.472,0.285-5.95,2.174-7.924c2.374-2.481,5.685-0.426,8.349,0.241
	c2.259,0.565,4.172,2.547,6.216,3.933c2.213,1.503,1.641,2.766-0.378,3.879C159.616,55.953,156.678,56.863,153.836,56.507z"/>
<path fill-rule="evenodd" clip-rule="evenodd" fill="#AA9581" d="M150.008,41.502c-4.293-1.026-8.405-3.27-13.078-1.659
	c-1.087,0.374-2.449,0.453-3.459-0.58c0.945-0.061,1.476-0.542,1.53-1.506c0.249-0.184,0.499-0.184,0.75-0.004
	c2.691,1.546,5.386,0.628,8.087,0.029c1.298-0.288,2.608-0.52,3.913-0.777c0.268,1.688,0.812,3.09,2.922,3.011
	c0.459-0.018,1.098,0.079,0.881,0.738C151.339,41.402,150.615,41.431,150.008,41.502z"/>
<path fill-rule="evenodd" clip-rule="evenodd" fill="#C0AC94" d="M135.75,37.753c-0.25,0.001-0.5,0.002-0.75,0.004
	c-2.088-1.543-2.756-4.209-1.592-5.841c1.965-2.754,5.469-1.784,8.379-1.464c2.603,0.286,2.041,2.651,2.377,4.412
	c0.364,1.904-0.8,2.155-2.155,2.116C139.875,36.918,137.787,37.094,135.75,37.753z"/>
<path fill-rule="evenodd" clip-rule="evenodd" fill="#877565" d="M129.715,37.007c0.754,0.797,0.458,1.325-0.499,1.424
	c-1.077,0.111-2.174,0.034-3.262,0.038C126.91,37.216,128.796,38.354,129.715,37.007z"/>
<path fill-rule="evenodd" clip-rule="evenodd" fill="#CDBCAD" d="M156.641,55.635c-2.112,0.229-2.902-0.378-2.895-2
	c0.012-2.346,0.973-3.881,3.46-3.818c1.762,0.043,3.855,0.516,3.876,2.619C161.116,55.699,157.683,54.488,156.641,55.635z"/>
</svg>
